<svg xmlns="http://www.w3.org/2000/svg" xmlns:xlink="http://www.w3.org/1999/xlink" version="1.1" id="svg283" width="2064.152" height="1875.115"><defs id="defs119"><linearGradient id="linearGradient1534-3"><stop offset="0" id="stop1530" stop-color="#894448" stop-opacity=".847"/><stop offset="1" id="stop1532" stop-color="#e37b5a" stop-opacity="0"/></linearGradient><linearGradient id="c" x1="2583.19" y1="1900.97" x2="2583.19" y2="-1530.28" gradientUnits="userSpaceOnUse"><stop offset="0" stop-color="#abdcbc" id="stop10"/><stop offset=".17" stop-color="#cbdccb" id="stop12"/><stop offset=".37" stop-color="#ebddd9" id="stop14"/><stop offset=".49" stop-color="#f7dddf" id="stop16"/><stop offset=".66" stop-color="#96aabe" id="stop18"/><stop offset=".86" stop-color="#2b7199" id="stop20"/><stop offset=".95" stop-color="#005a8a" id="stop22"/></linearGradient><linearGradient id="d" x1="4055.99" y1="1022.86" x2="4055.99" y2="1909.75" gradientUnits="userSpaceOnUse"><stop offset="0" stop-color="#ff9f67" id="stop25"/><stop offset=".3" stop-color="#f89162" id="stop27"/><stop offset=".86" stop-color="#e56d56" id="stop29"/><stop offset="1" stop-color="#e06353" id="stop31"/></linearGradient><linearGradient id="f" x1="4193.37" y1="1151.53" x2="4193.37" y2="184.61" gradientUnits="userSpaceOnUse"><stop offset=".5" stop-color="#fff" id="stop37"/><stop offset="1" stop-color="#848aa2" id="stop39"/></linearGradient><linearGradient id="g" data-name="shine2 3" x1="4051.84" y1="668.07" x2="4334.89" y2="668.07" gradientUnits="userSpaceOnUse"><stop offset="0" stop-color="#faf4d7" id="stop42"/><stop offset=".12" stop-color="#dfd1ed" id="stop44"/><stop offset=".33" stop-color="#958b9d" id="stop46"/><stop offset=".46" stop-color="#71748d" id="stop48"/><stop offset=".57" stop-color="#566482" id="stop50"/><stop offset=".64" stop-color="#5a6784" id="stop52"/><stop offset=".71" stop-color="#66728a" id="stop54"/><stop offset=".78" stop-color="#798394" id="stop56"/><stop offset=".84" stop-color="#959ba2" id="stop58"/><stop offset=".91" stop-color="#b8bab5" id="stop60"/><stop offset=".97" stop-color="#e3e0cb" id="stop62"/><stop offset="1" stop-color="#faf4d7" id="stop64"/></linearGradient><linearGradient id="h" x1="4257.87" y1="1085.99" x2="4481.51" y2="1125.43" gradientUnits="userSpaceOnUse"><stop offset="0" stop-color="#90859a" id="stop67"/><stop offset=".24" stop-color="#a49cae" stop-opacity=".76" id="stop69"/><stop offset=".58" stop-color="#beb7c6" stop-opacity=".46" id="stop71"/><stop offset=".84" stop-color="#cdc9d5" stop-opacity=".27" id="stop73"/><stop offset="1" stop-color="#d3cfdb" stop-opacity=".2" id="stop75"/></linearGradient><linearGradient id="i" x1="3862.79" y1="1067.61" x2="4060.6" y2="1181.81" gradientUnits="userSpaceOnUse"><stop offset="0" stop-color="#f8f5ff" id="stop78"/><stop offset=".59" stop-color="#dad4d2" id="stop80"/><stop offset="1" stop-color="#c8c0b7" id="stop82"/></linearGradient><linearGradient id="j" x1="3760.62" y1="1217.54" x2="4165.68" y2="983.68" gradientUnits="userSpaceOnUse"><stop offset=".28" stop-color="#c6c8d8" stop-opacity=".1" id="stop85"/><stop offset=".55" stop-color="#bdb7c9" stop-opacity=".46" id="stop87"/><stop offset=".86" stop-color="#b4a5b8" stop-opacity=".85" id="stop89"/><stop offset="1" stop-color="#b09eb2" id="stop91"/></linearGradient><linearGradient id="k" x1="4097.43" y1="1196.57" x2="4289.47" y2="1196.57" xlink:href="#g"/><linearGradient id="l" x1="4097.43" y1="1196.57" x2="4289.47" y2="1196.57" gradientUnits="userSpaceOnUse"><stop offset="0" stop-color="#faf4d7" stop-opacity="0" id="stop95"/><stop offset=".14" stop-color="#eee8d0" stop-opacity=".09" id="stop97"/><stop offset=".4" stop-color="#cdc8bf" stop-opacity=".32" id="stop99"/><stop offset=".74" stop-color="#9995a3" stop-opacity=".69" id="stop101"/><stop offset="1" stop-color="#6e6b8c" id="stop103"/></linearGradient><linearGradient id="m" x1="4191.76" y1="1204.54" x2="4241.19" y2="1118.92" gradientUnits="userSpaceOnUse"><stop offset="0" stop-color="#dfd1ed" id="stop106"/><stop offset=".09" stop-color="#d3c7e3" id="stop108"/><stop offset="1" stop-color="#566482" id="stop110"/></linearGradient><linearGradient xlink:href="#g" id="linearGradient1094" gradientUnits="userSpaceOnUse" x1="4051.84" y1="668.07" x2="4334.89" y2="668.07"/><linearGradient xlink:href="#linearGradient1534-3" id="linearGradient1536" x1="5035.021" y1="1117.707" x2="5099.933" y2="1812.643" gradientUnits="userSpaceOnUse" gradientTransform="translate(-765.362 252.723)"/><clipPath id="a"><path class="a" id="rect4" fill="none" d="M0 0h5120v1800H0z"/></clipPath><clipPath id="b"><path class="a" d="M-205.15 2143.1C-211.57 1073.55 1026.43 199.05 2560 189.84c1533.57-9.21 2782 850.37 2788.43 1919.92h17.08l-5553.58 33.34z" id="path7" fill="none"/></clipPath><clipPath id="e"><path class="a" d="M7381.55 1376.81c10.24-12.18 17.35-28 5.22-39.4-5.7-5.36-149.16-95.38-158.13-98.19a424.81 424.81 0 00-56.06-13.1c-60.41-10.21-122.34-9.75-183.17-16.67-7.07-.8-14.2-1.61-21.33-1.23a58.28 58.28 0 01-7.23.22c-2.6-.18-5.09-.87-7.66-1.22-3.64-.5-7.38-.32-11.06-.55a99.43 99.43 0 01-14.54-2.33 133.13 133.13 0 01-13.83-3.47 57.1 57.1 0 00-6-1.84c-5.35-1.14-36.94-28.33-36.94-28.33a2.12 2.12 0 00-.81-.88 10.63 10.63 0 00-3.58-1.27c-5.34-1.12-11.24-.32-16.67-.18-5.14.13-8.15.3-12.7-1.41-6-2.27-12.84-2.84-19.43-3.38 0 0-18.42-29.34-18.3-29.32l-39.19-7.42c-7.06-1.34-14.56-3.52-21.64-4.27-1.23-.14-2.48-.24-3.73-.33l-.92-.06c-1.25-.08-2.5-.15-3.77-.19h-.18c-1.22 0-2.46-.06-3.7-.07h-5.1c-1.21 0-2.42.06-3.63.1h-.94c-1.28.05-2.56.11-3.85.19h-.45l-3.53.23-.91.06c-1.27.1-2.54.19-3.8.3h-.11l-46.88-65.68c-3.89-2.56-13.14-3.94-18.22-5.23-19.64-5-39.58-9.37-59.38-14-7-1.64-59.8-17.58-63.45-14.8l-4.3 5.84c-22.46-7.57-47.79-8.5-72.2-9.32q-60.16-2-120.34.67c-19.73.9-41.78 1.58-57.73 11-8.85 5.22-11.55 9.31-20.2 15.69a51.16 51.16 0 01-10 5.74l-2.21-.41-28.09-27.75a183.6 183.6 0 00-19.48.56l-5.78.37c-36.05 2.3-71.68 3.83-107.75 5.11q-49.73 1.77-99.46 3.35-24.87.8-49.74 1.51c-10.29.3-31.5-2.7-40.46.2-3.48 1.13-6.18 3.29-9.29 4.93-8.76 4.65-20.13 5-30.81 5.26-52.1 1.07-104.33 2.15-156.27-1.12-15.26-1-30.47-2.29-45.76-2.9-30.17-1.21-60.44.39-90.4 3.37-27.59 2.75-55.62 10.09-83.13 11.65-21.74 1.23-44-1.48-64.65 6.11-4.44 1.64-8.41 3.94-12.82 5.63-13 5-28.19 4.18-42.62 5.16-14.43.98-34.39 2-43.73 11.75l-32.73 49.08h-.11l-2.14.1-2.14.11-2.2.14-2.13.13-2.19.17-2.13.17-2.25.21-2.06.18-2.26.24-2 .21-2.27.26-2 .23-2.23.28-2.06.25-2.38.32-1.89.25-2.41.34-1.87.27-2.41.35-1.86.27-2.66.41-1.6.24-3.15.49-1.1.18-3.3.52-1 .15-2.61.42-2.55.41-7.58 1.22c-26 4.13-52.79 7.83-79.41 5.73-10.46-.82-20.14-2.9-30.61-3-11.63-.09-21.52 2.44-32.81 4.06H5053c-13.93.74-85.62-2.09-87.51 8.76-.13.75-47 131.89-52.86 143.53h-.63a111.78 111.78 0 00-11.29 1.32l-1.34.23a114.21 114.21 0 00-17.5 4.86c-6.58 2.27-13 4.85-19.61 7.12-.82.29-1.64.57-2.47.84-17.67 5.85-36.63 9-55.45 12.2-2.14 3-73.81 86-73.81 86-23.41 2.76-39.77 3.43-77.74 3.36-23 0-46.7-.2-67.7-7.28-5.1-1.72-10-3.84-15.43-4.87-5.43-1.03-10.95-.92-16.47-.82l-73.23 1.41c1.47-2.29-3.56-3.44-6.89-3.76-8.77-.86-14.84-7.07-18.59-13.16-24.12-39.17-66.26-92.86-119.54-98.87-12.3-1.39-25-.38-36.92-3.37-23.67-5.91-39.32-25.81-53-44.38q-31.22-1.74-62.29-5c-25.22-2.69-54.19-8.58-65.36-29.33-2.87-5.33-4.27-11.26-7.45-16.43-8.72-14.16-27.95-19.13-44.95-24-19.74-5.66-25.78-19.34-41.06-27.08-17-8.64-46.09-9.23-65.21-12.18-44.17-6.81-88.76-11.12-133.34-14.92-69.91-6-309.32-20.54-343 23-3 3.85-48.68 87.63-62.47 94.31-47.46 23-104.07 29.83-156.47 19-11.25-2.34-22.51-5.48-34-5.1-16.3.53-31.2 8-46 14.24-30.84 13-45.48 4.62-79.27 8-6.94.71-31.67-41.57-39.22-46-6.52-3.82-13.1-7.43-18.58-12.42-34.84-31.76-81.5-10.36-123.85-13.7-44.43-3.49-74.69-32-118.9-37.16-33-3.83-184.3 3.42-210 30.63-5.4 5.71-46.44 79.48-64.1 82.13-48.61 7.28-54.94 14.64-101.11 30.28-14.72 5-29.73 10.89-45.42 10.08-17.9-.93-33.72-10.46-50.79-15.48-32.68-9.59-68.11-2.28-101.49 5.08l-103.75 22.87c-8.93 2-18.49 3.92-27.12 1-7.31-2.43-12.78-7.95-19.24-11.91-33.85-20.74-78 5.93-118.76 7.24-47.25 1.51-88.67-31-136-25.82-41.42 4.55-73.15 2-116.16-4.2q-90.81-13.14-181.74-25.69s-116.14 20.84-172 7.36c-29.49-7.12-56-22.46-85.47-29.56-41.38-10-88.82-2.82-129.5-8.49-39.12-5.45-78.61-5-117.88-.55-9.94 1.14-20.76.19-30.69 2.9-24.28 6.63-39 33.63-64.26 35-9 .48-17.91-2.59-27-2.67-14.11-.12-26.94 6.93-38.9 13.74l-75 42.69c-26.43 15-147.76 114.43-178.75 119-.17 0-.44 0-.82.08-69.4 5-131.6 61.87-177.91 120.55-73.2 92.75-172.62 165.68-289.16 208C-23.36 1832.22-35.07 1905.63-35 1905.63c37.94-.08 8174.67-14.54 8174.67-14.54-352.54 0-608.89-228.2-608.89-228.2s-155.9-278.14-149.23-286.08z" id="path34" fill="none"/></clipPath><clipPath id="n"><path class="a" id="rect113" fill="none" d="M0-3803.91h5120v1800H0z"/></clipPath><clipPath id="o"><path class="a" d="M-205.15-1660.81c-6.42-1069.55 1231.58-1944 2765.16-1953.26 1533.58-9.26 2781.99 850.37 2788.43 1919.92l17.08 173.35-5553.59 33.34z" id="path116" fill="none"/></clipPath><style id="style2">.a,.r{fill:none}.q{fill:#13323a}.r{stroke:#1790a6;stroke-miterlimit:10;stroke-width:36.28px;opacity:.8}</style></defs><g id="g1389" transform="translate(-3914.836 -258.43)"><g id="g1598" transform="translate(93.077 73.82)"><path id="path1528" d="M4619.58 2057.126c-49.953-17.02-140.58-50.211-184.955-67.738-49.955-19.731-91.219-38.536-106.044-48.327-7.877-5.203-38.183-35.278-95.953-95.222a27030.978 27030.978 0 00-57.07-59c-109.696-112.99-351.977-375.53-351.977-381.41 0-1.895 2.172-3.474 5.767-4.193 2.654-.531 7.383 1.75 34.405 16.591 40.798 22.409 180.38 98.861 352.828 193.253 43.175 23.632 83.9 46.01 90.5 49.727 6.6 3.717 21.167 11.795 32.372 17.951l20.372 11.194 14.628 1.956c18.898 2.527 50.126 3.59 59.974 2.04 8.546-1.346 13.154-3.427 13.154-5.942 0-.98-6.373-13.006-14.161-26.724-23.44-41.286-25.607-45.124-68.331-120.943-5.58-9.9-13.76-24.3-18.18-32-23.265-40.527-76.328-135.604-76.328-136.762 0-1.719 2.017-3.738 3.734-3.738 1.265 0 49.17 33.573 172.266 120.728 29.975 21.223 72.725 51.482 95 67.243 22.275 15.76 56.7 40.14 76.5 54.176 19.8 14.035 52.2 36.999 72 51.029 19.8 14.03 41.766 29.615 48.813 34.633 7.724 5.5 14.224 9.389 16.365 9.79 7.163 1.344 31.403-2.744 35.94-6.061 2.239-1.638 1.792-2.193-7.318-9.084-4.29-3.245-19.05-14.488-32.8-24.985-13.75-10.496-34-25.926-45-34.29-27.95-21.25-69.284-52.792-112.336-85.725a34699.76 34699.76 0 00-62.164-47.438c-65.529-49.835-64.944-49.374-64.985-51.19-.01-.37 1.184-2.097 2.649-3.839 3.341-3.97 3.655-3.918 22.336 3.78 19.353 7.976 59.313 22.494 142.5 51.772 200.438 70.546 287.404 101.76 434 155.773 59.077 21.766 149.164 55.967 197.982 75.162 26.143 10.28 29.667 12.516 34.704 22.026 4.499 8.494 4.996 12.538 5.782 47 .586 25.709 1.113 34.274 2.384 38.767 1.812 6.408 5.46 14.087 8.293 17.462 1.412 1.682 68.173 24.742 280.007 96.717 152.983 51.98 280.713 95.467 283.843 96.638 3.876 1.45 5.365 2.456 4.67 3.152-.898.897-1118.664 8.784-1225.665 8.648-32.714-.042-33.065-.064-40.5-2.597z" fill="url(#linearGradient1536)" fill-opacity="1"/><path d="M4269.66 1370.43l-63.46-235a1.77 1.77 0 00-.46-.81l-32.9-33a1.81 1.81 0 01-.53-1.28v-256a1.81 1.81 0 013.47-.72l70.07 161.38a1.65 1.65 0 01.14.58l27.23 364.27a1.81 1.81 0 01-3.56.58z" id="path151" style="isolation:isolate" fill="#333a49"/><path d="M4334.89 729.84c0 119.38-53.14 404.34-60.85 408.09-16.54 8-59.79 13.6-80.67 13.6-21.5 0-65.89-5.46-82.73-14.34-6.65-3.5-58.8-285.39-58.8-407.35 0-244.57 108.91-545.23 141.53-545.23 32.62 0 141.52 300.66 141.52 545.23z" id="path153" style="isolation:isolate" fill="url(#f)"/><path d="M4334.89 729.84c0 119.38-53.14 404.34-60.85 408.09-16.54 8-59.79 13.6-80.67 13.6-21.5 0-65.89-5.46-82.73-14.34-6.65-3.5-58.8-285.39-58.8-407.35 0-244.57 108.91-545.23 141.53-545.23 32.62 0 141.52 300.66 141.52 545.23z" id="path155" style="isolation:isolate;mix-blend-mode:multiply" opacity=".6" fill="url(#linearGradient1094)"/><path d="M4193.87 254.65c19.63.4 47.25 7.22 47.25 7.22-19.45-47.87-37.1-77.26-47.3-77.26-10.2 0-27.89 29.46-47.37 77.42 0-.03 24.24-7.86 47.42-7.38z" id="path157" style="isolation:isolate;mix-blend-mode:color" opacity=".7" fill="#5696a7"/><ellipse style="isolation:isolate" id="ellipse159" transform="rotate(-.99)" ry="7.11" rx="6.2" cy="540.521" cx="4275.832" class="q" fill="#13323a"/><ellipse style="isolation:isolate" id="ellipse161" transform="rotate(-.99)" ry="7.11" rx="6.2" cy="572.981" cx="4280.6" class="q" fill="#13323a"/><ellipse style="isolation:isolate" id="ellipse163" transform="rotate(-.99)" ry="7.11" rx="6.2" cy="605.761" cx="4284.699" class="q" fill="#13323a"/><ellipse style="isolation:isolate" id="ellipse165" transform="rotate(-.99)" ry="7.11" rx="6.2" cy="640.291" cx="4288.117" class="q" fill="#13323a"/><ellipse style="isolation:isolate" id="ellipse167" transform="rotate(-.99)" ry="7.11" rx="6.2" cy="673.351" cx="4290.917" class="q" fill="#13323a"/><ellipse style="isolation:isolate" id="ellipse169" transform="rotate(-.99)" ry="7.11" rx="6.2" cy="748.599" cx="4298.734" class="q" fill="#13323a"/><ellipse style="isolation:isolate" id="ellipse171" transform="rotate(-.99)" ry="7.11" rx="6.2" cy="783.658" cx="4299.643" class="q" fill="#13323a"/><ellipse style="isolation:isolate" id="ellipse173" transform="rotate(-.99)" ry="7.11" rx="6.2" cy="818.908" cx="4299.943" class="q" fill="#13323a"/><ellipse style="isolation:isolate" id="ellipse175" transform="rotate(-.99)" ry="7.11" rx="6.2" cy="854.267" cx="4299.653" class="q" fill="#13323a"/><ellipse style="isolation:isolate" id="ellipse177" transform="rotate(-.99)" ry="7.11" rx="6.2" cy="890.057" cx="4298.763" class="q" fill="#13323a"/><ellipse style="isolation:isolate" id="ellipse179" transform="rotate(-2.62)" ry="7.11" rx="6.2" cy="661.542" cx="4226.373" class="q" fill="#13323a"/><ellipse style="isolation:isolate" id="ellipse181" transform="rotate(-2.62)" ry="7.11" rx="6.2" cy="693.166" cx="4228.605" class="q" fill="#13323a"/><ellipse style="isolation:isolate" id="ellipse183" transform="rotate(-2.62)" ry="7.11" rx="6.2" cy="726.786" cx="4231.955" class="q" fill="#13323a"/><ellipse style="isolation:isolate" id="ellipse185" transform="rotate(-2.62)" ry="7.11" rx="6.2" cy="761.504" cx="4236.402" class="q" fill="#13323a"/><ellipse style="isolation:isolate" id="ellipse187" transform="rotate(-2.62)" ry="7.11" rx="6.2" cy="795.683" cx="4237.248" class="q" fill="#13323a"/><ellipse style="isolation:isolate" id="ellipse189" transform="rotate(-.99)" ry="7.11" rx="6.2" cy="750.768" cx="4266.124" class="q" fill="#13323a"/><ellipse style="isolation:isolate" id="ellipse191" transform="rotate(-.99)" ry="7.11" rx="6.2" cy="785.128" cx="4266.343" class="q" fill="#13323a"/><ellipse style="isolation:isolate" id="ellipse193" transform="rotate(-.99)" ry="7.11" rx="6.2" cy="820.527" cx="4267.502" class="q" fill="#13323a"/><ellipse style="isolation:isolate" id="ellipse195" transform="rotate(-.99)" ry="7.11" rx="6.2" cy="856.407" cx="4266.353" class="q" fill="#13323a"/><ellipse style="isolation:isolate" id="ellipse197" transform="rotate(-.99)" ry="7.11" rx="6.2" cy="891.256" cx="4264.583" class="q" fill="#13323a"/><ellipse style="isolation:isolate" id="ellipse199" transform="rotate(-86.59)" ry="6.2" rx="7.11" cy="4261.053" cx="-315.062" class="q" fill="#13323a"/><ellipse style="isolation:isolate" id="ellipse201" transform="rotate(-86.59)" ry="6.2" rx="7.11" cy="4264.503" cx="-348.655" class="q" fill="#13323a"/><ellipse style="isolation:isolate" id="ellipse203" transform="rotate(-.13)" ry="7.11" rx="6.2" cy="578.457" cx="4201.998" class="q" fill="#13323a"/><ellipse style="isolation:isolate" id="ellipse205" transform="rotate(-.13)" ry="7.11" rx="6.2" cy="612.187" cx="4202.408" class="q" fill="#13323a"/><ellipse style="isolation:isolate" id="ellipse207" transform="rotate(-89.01)" ry="6.2" rx="7.11" cy="4149.112" cx="-497.141" class="q" fill="#13323a"/><ellipse style="isolation:isolate" id="ellipse209" transform="rotate(-88.854)" ry="6.201" rx="7.111" cy="4161.056" cx="-520.409" class="q" fill="#13323a" stroke-width="1"/><ellipse style="isolation:isolate" id="ellipse211" transform="rotate(-89.01)" ry="6.2" rx="7.11" cy="4117.376" cx="-496.952" class="q" fill="#13323a"/><ellipse style="isolation:isolate" id="ellipse213" transform="rotate(-89.01)" ry="6.2" rx="7.11" cy="4115.542" cx="-530.721" class="q" fill="#13323a"/><ellipse style="isolation:isolate" id="ellipse215" transform="rotate(-89.01)" ry="6.2" rx="7.11" cy="4085.624" cx="-496.387" class="q" fill="#13323a"/><ellipse style="isolation:isolate" id="ellipse217" transform="rotate(-89.01)" ry="6.2" rx="7.11" cy="4082.84" cx="-530.548" class="q" fill="#13323a"/><ellipse style="isolation:isolate" id="ellipse219" transform="rotate(-87.38)" ry="6.2" rx="7.11" cy="4193.116" cx="-378.184" class="q" fill="#13323a"/><ellipse style="isolation:isolate" id="ellipse221" transform="rotate(-87.38)" ry="6.2" rx="7.11" cy="4194.171" cx="-411.902" class="q" fill="#13323a"/><ellipse style="isolation:isolate" id="ellipse223" transform="rotate(-87.84)" ry="6.2" rx="7.11" cy="4089.365" cx="-523.293" class="q" fill="#13323a"/><ellipse style="isolation:isolate" id="ellipse225" transform="rotate(-87.84)" ry="6.2" rx="7.11" cy="4091.155" cx="-558.749" class="q" fill="#13323a"/><ellipse style="isolation:isolate" id="ellipse227" transform="rotate(-87.84)" ry="6.2" rx="7.11" cy="4093.273" cx="-593.809" class="q" fill="#13323a"/><ellipse style="isolation:isolate" id="ellipse229" transform="rotate(-87.84)" ry="6.2" rx="7.11" cy="4095.726" cx="-628.377" class="q" fill="#13323a"/><ellipse style="isolation:isolate" id="ellipse231" transform="rotate(-87.84)" ry="6.2" rx="7.11" cy="4098.531" cx="-662.34" class="q" fill="#13323a"/><path class="r" d="M4058.67 944s73.13 14.74 139.86 15.18c57 .39 114-14.36 114-14.36" id="path235" style="isolation:isolate" opacity=".8" fill="none" stroke="#1790a6" stroke-width="36.28" stroke-miterlimit="10"/><path class="r" d="M4058.67 1003.51s73.13 14.74 139.86 15.19c57 .39 114-14.36 114-14.36" id="path237" style="isolation:isolate" opacity=".8" fill="none" stroke="#1790a6" stroke-width="36.28" stroke-miterlimit="10"/><path style="isolation:isolate" id="path239" d="M4480.78 1439.54l-64.62-452a194.13 194.13 0 00-38.23-90.72l-51.47-66.92a7.3 7.3 0 00-5.79-2.85h-.91l-11.13 1.4a7.31 7.31 0 00-6.4 7.59l11.76 257a7.27 7.27 0 00.61 2.6l152.25 347.82a7.3 7.3 0 006.69 4.39 7.22 7.22 0 002-.29 7.3 7.3 0 005.24-8.02z" fill="#f9f3e9"/><path style="isolation:isolate" id="path241" d="M4361.06 903.93l-55.5-74.29c-1.28.66-3.27 3.25-3.34 4.78-1.53 36.36-7.66 157.33-34 249.87l9.35 2.48a70.8 70.8 0 0145.9 38.35l145.09 321.6c1.66 3.63 9.72 1.9 9-2l-81.91-461.62a186.45 186.45 0 00-34.59-79.17z" fill="#d0cdd8"/><path style="isolation:isolate;mix-blend-mode:multiply" id="path243" d="M4356.06 903.93l-53.84-69.51c-2.2 27.09-6.36 152.75-34 249.87l9.35 2.48a70.8 70.8 0 0145.9 38.35L4437.11 1377c1.66 3.63-33.84-285.25-34.57-289.17l-11.89-104.7a186.45 186.45 0 00-34.59-79.2z" fill="url(#h)"/><path class="q" d="M4223.24 416c-54.21 12.4-109.33 4.35-126.3-2.42a991.44 991.44 0 0128.42-96.45c20-3 61.22-2.48 87.31 6.4 6.56 10.47 13.94 79.47 10.57 92.47z" id="path247" style="isolation:isolate" fill="#13323a"/><path style="isolation:isolate" id="path249" d="M4063.25 828.49a8.06 8.06 0 00-5.09 2l-140.88 120.64a37.26 37.26 0 00-11.71 20.16l-82.32 428.59 159.69-299.82c7.55-13.45 22.6-27.74 37.87-25.53l75 10.89c-25.15-84.89-18.13-201.53-18.13-253.53 0-2.88-2-3.83-5.42-3.71z" fill="#e8e9f0"/><path d="M4077.57 831.08L3927.9 958.62a37.33 37.33 0 00-11.71 20.16l-94.34 423.52c-1 4.45 6.5 4.34 8.72.36l169.24-303.22a37.29 37.29 0 0137.87-18.66l75 10.89c-29.01-97.81-36.23-232.42-35.11-260.59z" id="path251" style="isolation:isolate" fill="url(#i)"/><path d="M4077.57 831.08l-126 147.14a37.26 37.26 0 00-11.71 20.16l-91.18 371.76 151.09-270.7a37.29 37.29 0 0137.87-18.66l75 10.89c-28.97-97.81-36.19-232.42-35.07-260.59z" id="path253" style="isolation:isolate;mix-blend-mode:multiply" opacity=".8" fill="url(#j)"/><path style="isolation:isolate" id="path259" d="M4274 1137.93c-23.44 8-51.08 9.17-80.67 9.17-30.47 0-58.86-1-82.73-9.91-2.24-.83-23.3 110.22-7.18 113.11 41.41 7.43 139 7.65 180.4 0 16.18-2.97-7.23-113.25-9.82-112.37z" fill="#fff"/><path style="isolation:isolate;mix-blend-mode:multiply" id="path261" d="M4274 1137.93c-23.44 8-51.08 9.17-80.67 9.17-30.47 0-58.86-1-82.73-9.91-2.24-.83-23.3 110.22-7.18 113.11 41.41 7.43 139 7.65 180.4 0 16.18-2.97-7.23-113.25-9.82-112.37z" opacity=".6" fill="url(#k)"/><path style="isolation:isolate;mix-blend-mode:multiply" id="path263" d="M4274 1137.93c-23.44 8-51.08 9.17-80.67 9.17-30.47 0-58.86-1-82.73-9.91-2.24-.83-23.3 110.22-7.18 113.11 41.41 7.43 139 7.65 180.4 0 16.18-2.97-7.23-113.25-9.82-112.37z" opacity=".6" fill="url(#l)"/><path style="isolation:isolate;mix-blend-mode:multiply" id="path265" d="M4274 1137.93c-23.44 8-51.08 9.17-80.67 9.17-30.47 0-58.86-1-82.73-9.91-.58-.21-2.41 7-4.53 17.91 23.7 0 72.82 2.8 104 19.41 61 32.47 73.76 75.79 73.76 75.79 16.17-2.97-7.24-113.25-9.83-112.37z" opacity=".5" fill="url(#m)"/></g></g></svg>