<svg xmlns="http://www.w3.org/2000/svg" xmlns:xlink="http://www.w3.org/1999/xlink" viewBox="0 0 5000 267" width="5000" height="400"><defs><linearGradient id="a" x1="0" y1="0" x2="0" y2="400" spreadMethod="pad"><stop offset="0" stop-color="#ff9f67"/><stop offset="0" stop-color="#fb9764"/><stop offset="1" stop-color="#f48a60"/></linearGradient></defs><path style="isolation:isolate" d="M6494 283c10-12 17-28 5-40-6-5-149-95-158-98a425 425 0 00-56-13c-61-10-123-10-184-17l-21-1a58 58 0 01-7 0l-8-1h-11a99 99 0 01-14-3 133 133 0 01-14-3 57 57 0 00-6-2c-6-1-37-28-37-28a2 2 0 00-1-1 11 11 0 00-4-1c-5-2-11-1-16-1s-8 1-13-1c-6-2-13-3-19-3l-19-30-39-7c-7-2-14-4-21-4l-4-1h-27l-4 1-47-66-18-5-60-14c-7-2-59-18-63-15l-4 6c-23-8-48-9-73-9q-60-2-120 0c-20 1-42 2-58 11-8 5-11 10-20 16a51 51 0 01-10 6l-2-1-28-27a184 184 0 00-20 0h-5l-108 6-100 3-49 1c-11 1-32-2-41 1l-9 5c-9 4-20 5-31 5-52 1-104 2-156-1l-46-3c-30-1-60 0-90 3-28 3-56 10-83 12-22 1-44-2-65 6l-13 6c-13 5-28 4-43 5-14 1-34 2-43 11l-33 50h-13l-2 1h-9l-2 1h-4l-3 1h-6l-2 1h-5l-1 1h-4l-4 1h-3l-3 1-8 1c-26 4-52 8-79 6-10-1-20-3-31-3s-21 2-32 4h-2c-14 1-86-2-88 9l-52 143h-1a112 112 0 00-11 1l-2 1a114 114 0 00-17 5l-20 7-2 1c-18 5-37 9-56 12l-73 86a573 573 0 01-146-4l-15-5-17-1-73 2c1-3-4-4-7-4-9-1-15-7-19-13-24-40-66-93-119-99-12-2-25-1-37-4-24-6-39-25-53-44l-62-5c-25-3-54-9-66-29l-7-17c-9-14-28-19-45-24-20-5-26-19-41-27-17-8-46-9-65-12-44-7-89-11-134-15-70-6-309-20-343 23-3 4-48 88-62 94-48 23-104 30-157 19-11-2-22-5-34-5-16 1-31 8-46 15-30 13-45 4-79 8-7 0-32-42-39-46l-19-13c-34-32-81-10-123-14-45-3-75-32-119-37-33-4-185 4-210 31-6 6-47 79-64 82-49 7-55 15-102 30-14 5-29 11-45 10-18-1-34-10-51-15-32-10-68-2-101 5l-104 23c-9 2-19 4-27 1-7-3-13-8-19-12-34-21-78 6-119 7-47 2-89-31-136-26-42 5-73 2-116-4l-182-26s-116 21-172 8c-30-7-56-23-86-30-41-10-88-3-129-8-39-6-79-5-118-1-10 1-21 0-31 3-24 7-39 34-64 35-9 1-18-2-27-3-14 0-27 7-39 14l-75 43c-26 15-148 114-179 119-67 6-127 62-171 120a656 656 0 01-302 215c-161 58-163 126-163 126l8168-14c-267 0-609-228-609-228s-156-278-149-286z" fill="#933c29"/><path style="isolation:isolate" d="M4558 27l2-1c-7-4-22-4-31-6l-35-5-24-2c-7 0-17 1-19-5l12-5c-8-7-28-5-38-5-5 0-10 0-14-2 9-10 29-11 44-12 14-1 29 0 42-5l13-6c21-7 43-5 65-6 27-2 55-9 83-12 30-3 60-4 90-3l46 3c52 3 104 2 156 1 11 0 22-1 31-5l9-5c9-3 30 0 41 0l50-2 99-3 108-5 6-1a184 184 0 0119 0l-1 6a4 4 0 01-1 3 7 7 0 01-2 1 68 68 0 01-20 5l-9 2-5 2c-3 2-7 2-10 2l-20 3-5-2-33 13c9-3 28-1 38-2l41-1c22 0 45 4 64-7l23-19c16-9 38-10 58-11q60-2 121 0c24 1 49 2 72 9l4-6c4-3 56 13 63 15l60 14 18 5c-1 2-5 2-7 3-2 2-6 3-10 4-13 3-28 4-40 10-1 1 2 2 1 3a2 2 0 01-1 1c-21 8-48 4-68 13a31 31 0 01-5 1l-4 1a30 30 0 00-7 3l-20 10c-5 3-5 10-12 12l13 3a2 2 0 011 1v2l2 1c20 0 39 4 59 2l7 1c2 1 4 4 2 5a24 24 0 0015-1 252 252 0 0140-1l13 1 21-3a214 214 0 0129-2l4-1a9 9 0 011-1 5 5 0 012-1c15-1 31-3 46-1l21 4 39 8-6 9c-4 6-9 12-16 15h12a8 8 0 013 0 12 12 0 012 2l7 1 17 2c6 0 13 1 19 3 5 2 8 2 13 2h16c11 2-1 7-6 9a83 83 0 0012 0 9 9 0 014 0 6 6 0 012 1l4 4a2 2 0 011 0 1 1 0 01-1 1l-1 2a2 2 0 000 2l2 2c4 3 3 8 9 9h16a57 57 0 016 2 131 131 0 0014 4 98 98 0 0014 2l11 1 8 1a58 58 0 007 0c7-1 14 0 21 1 61 7 123 6 184 16a425 425 0 0156 14c9 2 152 92 158 98 12 11 5 27-5 39-7 8 149 286 149 286s342 228 609 228l-8168 15s2-69 163-126a656 656 0 00302-215c44-58 104-114 171-121 31-4 153-104 179-119l75-42c12-7 25-14 39-14l27 3c25-2 40-29 64-35 10-3 21-2 31-3 39-5 79-5 118 0 41 6 88-1 129 9 30 7 56 22 86 29 56 14 172-7 172-7l182 26c43 6 74 8 116 4 47-5 89 27 136 26 41-2 85-28 119-7 6 4 12 9 19 11 8 3 18 1 27-1l104-22c33-8 69-15 101-6 17 5 33 15 51 16 16 1 31-5 45-10 47-16 53-23 102-30 17-3 250 11 258-4 14-26-87-42-76-49 7-4-124-24-118-30 25-27 177-34 210-30 44 5 74 33 119 37 42 3 89-18 123 14 6 5 12 8 19 12 8 5 32 47 39 46 34-3 49 5 79-8 15-6 30-14 46-14 12-1 23 3 34 5 53 11 109 4 157-19 14-7 27-15 42-18 16-4 33-3 50-3a218 218 0 0079-18c5-1 9-4 12-8 21-34-124-44-121-47 34-44 274-29 343-23 45 3 90 8 134 14 19 3 48 4 65 13 15 7 21 21 41 27 17 5 36 10 45 24l7 16c12 21 41 27 66 29l62 6c14 18 29 38 53 44 12 3 25 2 37 3 53 6 95 60 120 99 3 6 9 12 18 13 3 1 8 2 7 4l73-1h17l15 5c21 7 45 8 68 8 38 0 77 0 112-11 5-6-2-14 2-20 5-6 17-5 26-5 27 1 51-13 72-27a13 13 0 004-4c2-3-1-7-5-9s-9-2-14-2a273 273 0 01-38-5c-4-1-10-4-8-7 19-3 38-6 56-12 13-4 25-10 39-13 16-3 33-1 49-2 21-1 33-9 51-13 19-5 39-1 59-1 24 0 48-4 73-2 4 1 8 1 11-1s3-5 4-7c3-8 36-9 45-9h52c18 0 35-1 28-18-5-14-20-25-38-28-12-2-24-1-36-2-21-1-41-6-61-9l-41-8c-17-4-36-6-51-13-14-7-26-18-43-22-9-2-29 1-35-8-9-14 80-10 89-11 11-2 21-4 33-4l30 3c27 2 54-1 80-6 22-3 45-7 68-8 24-1 47 1 71 1 25 1 48 2 72-4 12-3 28-7 37-15z" fill="url(#a)"/></svg>
