<svg xmlns="http://www.w3.org/2000/svg" xmlns:xlink="http://www.w3.org/1999/xlink" preserveAspectRatio="xMinYMin slice" viewBox="0 0 6293 3254"><path d="M281 10c-9 13-11 40-3 48 11 9 24 8 35-2 9-8 12-9 26-8 21 2 25-3 28-38-20-131-17-41 26-2l14 11c3 1 3 2-2 2-3 0-11 6-19 15-19 21-19 29 0 53 13 16 16 18 27 19 16 2 22-8 24-37 2-21 2-21-10-35l-12-14 14 1c8 1 20 0 26-1 857-841 1335-1923-174-12zm5372 7c14 14 19 17 29 20 16 6 28 7 36 3l13-11 12-14 6-6c0-378-284-163-96 8zM202 3c12 1 20-1 25-6C352-170 2-16 202 3zm5121-9c1 5 7 10 20 20 24 17 40 23 62 23 20 1 29-5 31-17 0-5 2-9 3-10l5-5c10-35-119-55-121-11zM932 20l10 15 22 2c15 1 23 1 28-4 3-3 5-9 5-18 6-69-99-45-65 5zM5493-4c-3662 2172-1831 1086 0 0zm-343-1v1c1 6 8 10 16 10 52-8-13-39-16-11zm447-1c-3 3-3 12 0 16l8 3c26-6 11-37-8-19zM3043 5l-19 2c-32 5-38 9-41 24l-5 21c-4 6-5 12-5 18 0 12 9 24 28 37 14 10 19 14 24 23 10 18 13 28 11 37-3 9 4 19 23 31 10 6 12 7 20 5s10-2 18 4c6 3 12 6 15 6 6 0 29-12 35-18 4-5-3-10-17-13-10-3-10-3-5-10 3-5 12-11 26-20l21-12 28 2c22 2 30 3 35 7 8 5 13 4 27-4 8-4 10-7 8-9-1-2-13-10-26-18-26-17-26-17-40-9-4 2-11 4-17 4-8 0-9-1-9-4l5-5c9-6 8-7-13-21-11-7-22-15-24-18s-4-14-4-24c-1-13-3-20-6-22-8-5-32-6-46-2-12 4-18 2-35-8-4-3-6-4-12-4zm382 5c-7 0-13 4-16 12l-1 3c0 6 8 11 19 9 10-2 20-7 20-11-1-2-4-6-8-8-4-3-9-5-14-5zm1856 11c-3 0-6 0-10 2-13 5-13 7-6 17s25 25 31 25c2 1 5-2 11-8l7-11-11-12c-9-9-15-13-22-13zM164 30c-23 0-38 14-43 39-2 10-7 23-11 29-4 7-7 17-8 24-1 11 1 15 10 27 9 11 13 14 25 17 8 1 16 4 18 7 1 3-7 13-31 35-35 34-40 42-27 53 9 8 10 14 7 65-3 42-3 47 3 56 3 7 5 16 5 24-1 13 3 25 14 36 10 11 12 20 10 45-1 21 0 26 5 33l6 9-8 15-17 26a43 43 0 00-4 49l7 11-18 28c-11 17-19 33-19 38-1 8 5 17 27 46 25 32 29 36 38 37 8 1 13 0 17-4s6-11 8-24c2-15 1-24-1-32-4-10-4-10 8-23 11-11 13-15 14-27s4-18 22-42c17-22 24-28 33-31 11-3 12-4 13-15 1-8-2-18-7-29l-8-16 7-13c8-14 10-26 6-36-2-5-1-6 7-7 6-1 14-5 18-10 11-12 33-50 33-59 1-7-1-8-11-11l-28-3c-12-1-16-3-22-9-5-6-10-9-21-10-13-1-17 0-26 9-6 6-12 13-12 17-1 10-5 11-10 3-5-6-5-7 2-15 8-10 9-19 4-36-3-12-3-13 3-19 5-5 7-11 7-23 1-14 3-18 10-24 6-6 8-10 9-24 1-16 0-18-10-31l-12-13 6-11c19-37 70-62 90-45 10 9 13 15 19 33 4 11 7 15 14 17 9 3 10 5 13 19s4 16 14 17c10 2 11 2 23-20 17-32 17-51-1-73-5-7-8-8-16-7-5 1-12 3-15 6-5 5-8 3-34-30l-28-34-16-1h-16l-5 13c-4 9-13 21-27 34l-21 21-3-11c-1-6-4-11-6-12l-12-4-7-4 7-11c9-14 9-28-1-32-4-2-5-3-3-3 9 0 16-9 17-23 1-20-3-26-21-30zm4930 10c-10 0-38 17-38 23s18 18 26 19l17-6c9-6 11-8 12-17 0-10-4-15-15-19zm449 25l-12 4-13 7 2 21 1 22-14 8c-11 6-16 11-22 21l-11 15 7 6c9 5 11 5 33 2 32-5 38-8 45-28 12-39 13-48 7-59-4-7-9-13-14-16zm239 6l-6 1c-12 5-23 13-33 22 1 2 5 6 12 10 10 7 14 8 21 8 39 2 28-40 6-41zm-80 2c-5 0-7 6-8 19-2 16 1 20 16 20 9 1 11 0 17-6l7-7-13-13c-9-9-15-14-19-13zM3401 83c-4 0-8 1-13 4s-7 6-7 8 2 5 6 7c8 5 15 5 24 0 4-3 8-6 8-8s-3-5-6-7c-4-3-8-4-12-4zm1801 4c-2 0-4 2-7 5-4 3-4 13-2 25 2 8 10 17 17 17 4 0 7-2 13-8 10-10 9-12-6-28-8-8-12-11-15-11zm-2265 32l-34 19-33 19 6 4c5 3 13 5 25 6l19 2 17-10c16-9 18-11 18-17 0-4-2-9-3-11l-9-8zm2682 33c-5 0-10 3-25 11-13 7-22 13-23 16s-2 16-1 30l2 24-25-2c-23-2-30-1-35 6l-1 1c0 3 6 6 24 18l24 16 17 2c16 1 17 1 36-9 26-12 28-16 18-29s-8-19 13-31l16-9-8-17c-9-17-18-25-30-26zm-2627 8c-6 0-12 1-16 3-6 3-9 6-9 10 0 3 4 7 12 12 14 10 24 10 36 3 9-5 10-7 7-14-4-8-18-14-30-14zm1929 8l-9 1c-13 3-34 16-34 21h1c2 5 12 11 19 11 10 0 27-9 34-18 5-7 5-8-1-12-4-2-6-3-10-3zm597 5h-1c-3 0-5 2-8 5s-6 7-6 9c0 6 14 18 24 21 7 2 9 2 12-2 5-5 1-15-10-26-5-5-8-7-11-7zm-2422 10c3 0 4 2 0 3-1 2-3 1-4 0l2-2zm1962 5c-3 0-6 2-10 6-7 7-7 9-7 17l3 19c2 6 2 11 0 14-6 9-6 10 2 17 5 5 10 8 17 9 5 2 11 4 13 7l6 3c4 0 12-12 13-18 0-3-2-9-5-13-3-6-5-15-6-25 0-16 0-16-10-26-7-7-12-10-16-10zm-220 12c-8-1-21 7-24 14-2 6-2 6-19 8h-43c-32-1-36-1-49 7-10 5-11 7-12 19-3 18-10 34-21 49 0 2 3 4 8 8 14 9 17 15 17 29-1 9 1 11 10 17 10 7 15 8 26 4l27-3c63-2 80-7 82-22 1-5 5-10 9-12 10-6 11-9 9-43-1-23 1-33 5-38 3-3 5-10 4-15-1-9-13-19-26-22zm458 15l-5 2c-5 2-5 7-4 18l3 15-14 1c-11 1-16 3-31 11-22 13-27 20-19 33 4 7 4 8-1 10-3 0-16 7-28 14-21 12-24 14-32 27-4 6-7 10-7 13 0 7 13 8 50 11 41 2 45 2 53-3 7-4 8-7 7-33 0-28 0-29 9-35 5-2 10-7 11-9 0-4 2-5 8-5 5 0 13-4 22-9 11-6 16-8 27-8 23-1 36-8 30-17-4-8-17-15-48-26-20-7-27-10-31-10zm-305 8l-6 4c-4 4-5 7-5 16 0 10 0 12 7 19 4 4 9 8 11 8s7-3 11-7c10-10 9-16-7-30zm-3908 9c-4 0-7 1-10 3-2 2-4 8-4 13-1 13 9 25 35 43 17 12 24 15 38 16 13 1 18 0 23-4 9-8 10-26 3-38-5-8-7-9-24-10-16-1-20-2-30-11-9-8-21-12-31-12zm3700 38c2 2-6 15-11 20-3 3-8 5-12 6h-5l1-5c1-3 7-9 14-14zm243 40c-5 0-8 3-13 11-4 7-4 8 0 12l9 6c3 1 4 2 4 5-1 7 10 16 20 17 8 1 9 1 29 21 22 23 30 28 41 26l9-5c4-3 12-40 11-48-1-6-26-31-34-35l-32-3c-19 0-29-2-35-5l-8-2zM512 334c-8-1-12 1-15 4-8 8-10 28-5 38 3 6 7 8 26 9 14 2 22 1 27-3 4-3 5-10 6-21 1-21-2-24-29-27zm4959 3c-7 0-12 2-30 11-16 9-22 13-23 16 1 5 19 17 30 18 11 2 63-2 69-5 4-2 5-16 0-24-4-9-20-15-42-16zm-659 18c-5 0-10 2-25 11-19 10-20 12-21 18 0 5 3 8 10 13l10 7 25-5 28-6c4-2 4-16 0-23-3-6-15-14-24-15zm487 3l-5 1c-6 4-20 26-20 32 1 6 17 17 27 18 16 1 31-15 26-28-1-3-5-8-9-11-12-9-16-12-19-12zm-338 13c-8 0-15 6-15 10l6 12c3 3 5 15 6 26v20l-12 7-13 6-27-6c-25-6-41-11-70-23-14-6-36-8-42-4-7 4-5 10 7 18 13 8 13 12 0 19-9 6-10 7-10 22 0 14 0 15-4 9-2-4-6-8-10-10s-7-2-16 2c-7 4-11 8-13 12-3 6-4 7-15 9-11 1-11 1-15-5-1-3-5-7-7-8-4-3-4-4 16-6l22-6c6-3 10-1-44-30l-15-9-33 19-32 18 7 4c8 6 34 10 54 8l15-1-33 20c-31 19-32 20-33 28-2 8-4 10-18 18l-16 9 5 5c8 7 8 16 1 19-4 3-4 5 3 12l7 9-24 14-24 15 6 5 19 15c13 8 15 9 33 9l28 1 9-1-9 4c-5 3-22 6-37 7-36 4-44 8-43 24 1 10 2 13 10 18 9 6 13 7 27 8 16 0 19 1 26 7 5 4 11 7 18 9 9 1 11 3 12 5 0 6-9 4-24-5-8-4-16-7-20-7-3 0-12 3-20 7-18 10-18 14-1 27 16 11 30 14 52 11l38-2c13 0 24-1 25-2 5-3 7 1 7 13s0 12-15 20c-13 6-20 15-18 24 2 10 7 13 24 15 20 3 25 8 20 20-3 5-5 10-4 12 0 1-4 5-10 8-9 5-12 8-13 14-1 7-3 9-26 23-25 15-26 15-41 16-14 1-18 2-25 7-5 4-8 8-7 10 1 4 24 16 30 16 2 1 3 4 2 10-4 2-7 6-12 10-24 23-25 25-23 50 2 14 2 16 10 24 10 9 18 13 30 11 7-1 12-5 13-12 1-4 2-5 6-6 3 0 9-5 18-13 8-9 11-12 12-15 6 1 7 2 7 4-1 2-5 6-10 9s-9 7-9 12c-1 4-6 9-14 15-11 8-11 8-6 16 8 9 9 18 3 30-7 13-7 25 1 38 8 11 7 13-8 23-7 4-8 6-4 8l18 14 14 11-15 30-15 29 10 7c8 5 10 8 13 20 4 18 1 24-16 31-21 9-26 15-26 31l-1 14-32 18c-32 18-32 18-48 19-13 1-19 3-27 7-26 15-21 24 15 25h23l-8 13c-5 9-8 19-7 31v18l-14 8c-11 7-15 10-15 15l-1 6-7-4c-16-11-41-8-67 7-17 9-17 10-17 20-1 11 1 12 19 19 11 4 5 15-13 25-14 8-15 9-14 18 0 8 1 10 16 19 26 17 26 17 46 6l17-10 26 1c23 0 26 0 33-5s7-5 9 0c2 6 16 15 26 16 9 2 24-4 19-7-1-1 1-5 4-10 6-11 5-16-5-22-9-6-14-5-33 7l-12 8v-6c0-5 3-8 11-13 12-6 12-8 3-19-6-7-6-7 3-11l3-1c4 5 8 8 12 8l8-4 3-5 16 4c11 4 12 4 37-3l32-11c7-3 7-5 0-18l-8-16 21-12 22-12-1-14c-2-22 1-28 19-38 9-5 15-10 15-12s-6-6-12-11c-6-4-12-8-12-10-1-1 7-7 21-16 31-18 32-19 47-20 13 0 16-2 34-12 26-15 30-20 30-34v-12l21-11c32-17 53-33 55-41 1-4 3-9 6-10 4-2 5-2 8 4l9 10 6 3 31-17c31-18 40-25 38-31-2-4-12-10-24-14-9-2-11-4-14-8-3-7-11-12-17-11l-39 22c-36 23-44 26-71 27-10 1-11 1-11-4 0-3 1-6 3-7s4-5 6-9c2-6 2-6 10-6 6 1 11 0 16-4 6-4 6-6 3-16-4-10-6-12-20-21-12-8-18-10-30-13-19-4-30-10-21-12 13-2 20-7 25-17 3-6 8-12 13-15 7-4 9-6 9-12-1-3 2-14 5-23l5-16 25-15c31-18 34-22 22-30l-9-5-14 6c-7 3-19 7-26 8s-17 4-22 7c-6 3-12 5-21 5-10 0-14 1-25 7-14 8-28 11-44 10l-10-1-14-23c-19-34-19-39 1-39 18-1 27-9 35-29l8-18c1-1 8 2 16 5l14 6 31-18 31-18 11 6c10 5 13 5 20 3 14-5 27-14 28-19 2-4 3-5 11-6l17-5c6-4 7-4 14 2 5 4 10 6 12 6s6 3 10 8c9 11 19 15 45 21l22 4 13-8c13-8 25-12 28-10 1 1 3 5 3 9 1 6 4 9 12 14l11 7 42-7 43-7 8 6c8 5 9 5 31 2 26-3 34-6 34-15 0-3 3-8 9-12 12-9 33-65 26-71-8-6-24-6-60 0-21 4-35 5-36 3-1-1 3-5 9-9 13-9 15-14 12-24l-3-9 26-1c14-1 28-2 31-4 2-1 5-14 7-31 2-24 3-29 11-35 11-9 12-16 3-31-8-15-12-34-8-42l4-7 15 1c16 1 25-1 28-9 2-3 4-4 10-4 8 0 27-9 26-14 0-2-5-6-10-10-11-7-12-7-57-9-31-2-46-2-50 0-3 2-5 8-6 16 0 9-2 13-5 14-3 0-14 5-24 9-16 7-21 9-31 8-9 0-14 1-21 5s-14 6-22 7c-16 1-42-2-43-5-1-2 3-5 9-9 15-9 22-18 21-28v-9h9c13 1 22-4 23-12 1-6 1-6 11-8 6 0 18-5 27-9l15-7 7 4c10 6 38 8 47 3 3-1 8-9 11-16 4-11 6-13 11-14 11 0 28-11 29-18l6-15c6-11 2-37-7-43s-39-6-69-1l-25 4-1-9c0-5 3-14 6-21 7-12 7-27 0-37-5-8-18-16-30-21-9-3-11-3-21 3-9 6-10 8-10 19-1 6-3 15-6 18-3 4-5 14-4 25 0 17 0 19-8 24-12 7-24 30-24 45 0 11 0 12-16 21-11 8-15 9-15 7l9-8c10-6 9-9-3-17-11-7-12-12-4-20l6-5-18-12c-13-8-20-15-28-25-6-7-13-15-17-16-5-3-7-2-20 4-12 7-17 8-27 7-14 0-19-2-9-3 14-2 23-10 28-27 4-13 8-17 17-23 6-4 11-9 11-11 1-4-22-18-29-18-3 0-11 3-19 7l-13 6-15-7c-8-5-17-8-20-9-5 0-6-1-8-6-2-6-18-17-26-17zm-71 22l-12 6c-11 6-12 7-12 18v2c0 11 7 17 18 17 10 0 14-4 22-17l7-13-12-6zm464 1c-3 0-7 2-10 6-8 7-8 14 0 22 4 4 7 9 8 17 2 12 5 17 13 15 4 0 7-3 11-7 10-14 7-31-7-44-5-6-10-9-15-9zm-595 6c-2 0-11 3-17 7-9 4-11 7-11 9v2c4 7 17 14 32 16 20 3 27-1 22-14-4-10-16-20-26-20zm-1277 19c-6-1-29 12-34 18-3 4-5 9-5 14 1 5 3 10 7 12 9 6 28 6 46-1 16-5 25-12 26-18 0-2-4-6-19-14zm135 8c-7 0-12 1-15 3-3 1-4 2-4 4 0 3 6 8 21 17 14 9 15 11 17 19 0 5 3 10 5 12 5 3 28 4 40 2 13-1 23-9 21-15-1-4-7-8-30-22l-29-18-18-1zM411 494c-8 0-12 1-15 4-4 4-6 10-7 26-2 22 0 31 10 44 8 13 25 12 37 0 4-4 7-10 10-16 5-13 6-39 2-48-4-7-7-8-25-9zm4660 35l-1 6c-3 9-6 14-7 12v-1l3-10zm346 32c-5 0-10 1-15 4-5 2-7 6-6 9 0 7 9 13 22 14 14 1 19-3 19-12s-10-15-20-15zm-121 0c4 0 7 2 5 4l-14 11-12 8 5-10c2-5 7-10 10-12zm-1502 7c-4 0-12 4-23 11l-17 11 13 10c19 16 28 18 44 10 11-5 12-6 12-17-1-9-2-11-12-18-7-4-13-7-17-7zm1980 1h-1c-6 0-11 5-11 13-1 9 5 14 15 14 15 1 20-10 9-21-4-4-8-6-12-6zm-899 19l1 5c-1 3-3 6-5 7-3 2-5 0-5-3v-3c1-2 4-5 7-5zm-4538 2c-7 0-12 1-13 3-4 10-2 18 7 30 17 22 30 27 43 18l3-2c3-3 4-8 5-20 1-9 0-19-2-21-3-4-27-8-43-8zm4119 15c-12 0-22 5-46 18-19 11-25 15-25 17l2 2 23 8c10 2 21 5 26 8 14 9 19 9 36-1 14-7 17-11 24-23l7-14-9-6c-7-4-13-6-23-8zm1203 16c-5 0-10 4-18 13-11 12-11 17-4 25 6 5 12 7 25 7 16 1 19-3 17-20-2-12-3-14-9-20-4-3-7-5-11-5zm-44 13h-2c-16 5-17 26-2 27 7 0 14-7 15-14 0-6-5-13-11-13zm157 10c-3 0-6 2-14 8-7 6-9 8-10 14 0 8 3 13 10 15 4 1 4 2 0 5-6 7-5 10 8 24 13 13 14 15 7 21-5 5-4 12 2 18 7 6 11 7 24 7 6 0 14 3 19 5l10 6c5 3 10-5 10-17l1-13-26-24c-23-23-26-25-37-29l-11-3 10-9c11-10 12-16 4-24-3-3-5-4-7-4zm-1403 3h-7c-7 0-18 3-24 5-7 3-16 5-26 5-28 0-31 9-9 23 8 5 12 7 19 6l14 2c3 2 2 4-6 8-14 9-16 13-9 22 4 4 7 11 7 16 1 9-3 11-25 12-28 0-32 1-48 10-11 6-16 9-15 13 0 3 5 6 14 12 21 13 31 15 43 6 4-3 8-9 9-12l1-7 23 1c20 1 23 1 33-5 8-5 10-7 10-13-1-5 1-7 9-12 13-7 13-12-1-32-10-14-11-16-6-19 11-7 17-16 16-25-2-11-9-16-22-16zm184 23c-8 0-17 6-20 15-5 16-9 16-30 1-8-5-11-7-16-6-12 2-15 5-15 20 0 10-1 17-4 18-4 2-14 3-29 1h-27c-4 3-14 27-16 40v6c1 9 5 18 11 22s7 4 23-5c10-6 17-12 19-15 2-4 4-6 6-6 7 2 19-7 22-15 2-6 4-8 10-9 7-1 10 0 20 7 15 9 24 10 36 4 5-3 8-7 9-14s3-10 11-14c9-6 10-7 9-24 0-14-2-20-7-23-3-2-8-3-12-3zm481 9h1c4 0 4 7 0 7-4-1-7-3-7-5l1-1zm380 13c-9 0-22 9-23 15 0 5 3 7 14 14 18 12 30 14 44 6 6-4 9-6 7-9-12-11-26-20-42-26zm-189 5c2-1 1 1-2 5-6 8-5 17 4 25 8 7 6 11-4 9s-15-9-15-16c-1-6 2-13 7-17zm-303 21c5 0 5 4 0 12-3 6-6 10-7 9l-2-6c0-5 2-14 5-14zm834 2c-4 0-8 3-12 8-13 17-11 27 5 23 15-3 25-18 16-27-2-3-5-4-9-4zm-136 15l-17 18-17 17 19 19 12 13-2 1c-18 3-25 10-27 23-4 22-10 36-20 42-9 5-14 9-14 13 1 5 11 9 33 15l24 6 7-4-3 21-11 4c-5 1-11 3-13 5-5 5-5 21 0 31 5 8 5 9 0 14l-9 11c-4 5-4 6 7 18 10 12 12 16 17 31 3 9 5 20 5 25 0 4 3 16 7 27l8 29 2 17c7 23 2 63-10 75-5 5-7 8-7 13 0 7-2 9-15 22s-14 15-15 23c-2 7-4 11-16 24-13 14-15 18-16 24-1 13 1 17 15 31 7 6 12 12 12 13s-2 3-5 4c-6 2-6 2-8-4-1-4-4-8-6-11-3-3-4-3-8 1-6 6-8 12-8 24 0 10 4 17 12 18 4 1 5 1 5 5 0 3 4 8 11 15l10 11-11-1c-15-2-18 1-18 17-1 11-1 12-10 19l-9 8-7-7c-8-8-10-8-20 2-4 4-7 8-7 11 1 3 0 4-6 5-7 0-15 7-16 12-2 7 3 14 21 32 19 19 19 19 15 22-3 2-5 2-13-6l-10-8-18 5c-20 6-25 9-25 20v8l-8-7c-11-11-12-16-4-23 8-8 12-19 10-29-2-6-4-9-14-18-10-10-11-10-22-10-7 0-12 2-15 6l-4 6c3 4 2 35-2 45-2 6-4 13-3 16 0 11 12 42 18 48 5 5 13 8 18 8 1-1 1 1-2 3-5 6-3 14 6 22l7 8-6 1c-4 1-12 6-22 15l-16 14 4 4c2 3 7 6 11 7l7 3-12 11c-9 8-12 11-13 18-1 5-5 11-9 15-10 10-10 13 0 23 8 8 10 9 14 8 6-2 43-39 46-47 6-14 0-29-12-30-4 0-2-1 8-4 7-2 15-6 17-8 4-4 4-6 1-12l-6-9c-1-1 0-4 4-8 8-8 7-23-1-31l-6-6 10-3c9-3 13-6 22-14 13-14 16-14 27 0 10 12 13 18 17 46 3 15 5 23 9 26l4 5 7-8 7-6c1 1-3 5-7 10-10 10-10 15-2 23l10 16c4 11 20 30 31 36 4 2 6 2 9-2 7-6 6-19 0-30-4-6-4-10-2-12 8-8 8-26-1-38-10-14-11-27-5-45 5-13 5-15 0-21l-5-7 20-21 19-20v-11c1-18 2-21 24-43 19-19 20-21 22-29 1-7 3-10 16-24 14-15 14-16 15-26 0-6 2-16 4-22 3-11 4-12 10-13 11-3 13-7 8-23-3-7-5-18-6-22l-1-8h13c17 0 24-6 25-21 1-10 4-15 11-16 4 0 4 1 5 10 0 6-2 13-3 16-6 8-6 12-2 17 8 9 14 10 29 5 18-7 22-10 21-22-2-12 1-21 9-29l6-6-5-15c-5-16-11-23-18-23-5 1-6 0-11-16-3-10-5-21-4-25 1-6 0-9-4-13l-9-5c-1 0-2-1-2-4-1-7 3-16 11-24 7-7 9-12 18-37 5-16 9-34 9-39l1-11 25-27c26-26 26-26 27-36 1-8 1-11-3-15-3-2-9-11-12-20l-7-15 9 8c14 11 35 16 42 11 7-6 9-20 8-48-1-21-1-22-8-28-6-5-7-5-15-1-7 3-11 3-17 1l-13-4c-4-1-10-4-13-7-5-5-13-9-18-8s-12 10-13 16c-1 5-2 6-5 7-7 2-11 7-12 16-1 15-5 16-31 5-24-9-27-8-28 9-2 25-9 46-19 57-7 6-6 10 3 20 7 7 9 10 8 15 0 6 0 7-5 7l-9 5c-4 4-4 4-15-5-11-10-12-12-6-18l3-6c0-2-4-16-10-31-10-28-10-29-7-45l2-35c0-17-1-19-6-25l-7-5 5-18c0-7 3-13 7-17 7-5 7-6 1-10l-7-2 5-4c6-6 7-7 11-4 5 3 8 10 8 20 0 2 3 7 6 10 6 5 9 7 20 7 11 1 14 0 17-4 4-5 4-5-5-17-7-8-10-15-12-24-3-12-3-12 4-20 9-11 10-16 4-22-6-5-12-4-23 4-11 10-21 10-34 0-5-4-14-8-22-11zm-1108 18c-5 0-9 1-12 3-2 1-3 2-3 4 1 4 7 10 17 17 23 15 40 15 37-1-2-12-23-23-39-23zm1239 5c-3 0-5 1-7 3-7 5-5 14 4 23 6 6 8 10 11 25 5 22 8 25 25 24 7 0 14-1 16-4 3-3 3-5-2-13-7-10-7-10-2-18l5-9-14-13c-13-12-16-14-26-16zm-543 3h2c3 2-32 20-37 20s-7-1-7-3c0-5 15-15 32-16zm-122 15l1 10c0 5 3 12 7 16 7 8 5 10-5 7-9-2-14-8-14-14 0-4 2-9 6-14zm-4877 2h-6c-11 0-21 3-25 6-9 8-9 30 1 42 7 9 7 12 5 26-4 20 0 26 14 28 8 0 14-2 19-7 9-8 13-25 15-52 2-24 1-29-4-35-4-6-7-8-19-8zM97 821c-8 0-10 1-12 5-6 9-11 90-7 104 7 23 27 34 40 23 4-4 3 0-5 12-6 10-11 23-11 28-1 9 1 11 10 15l14 5c3 0 4 5 3 13-1 18 13 35 30 36l12 1-9 15c-6 12-8 20-10 39-2 30-5 32-29 28-22-4-30-10-60-39-17-15-26-22-32-22l-10-1v16c0 9-1 16-2 15s-2-10-1-20c2-21-3-28-19-30-7 0-18-5-25-9-14-9-49-15-65-11-7 1-8 4-9 12-1 13 11 29 28 36 10 4 13 7 13 11-1 19 15 41 36 46 22 6 35 20 45 48 8 21 9 23 19 26l12 3-3 44-2 44 10 14c16 22 16 26 13 75-3 42-2 46 4 57 5 10 6 15 5 45-1 33-1 34 7 47 5 7 12 21 16 30 6 17 6 19 1 25-10 15-8 22 12 36l26 20 9 9-14 13c-18 17-21 32-8 51 8 13 9 21 3 29-4 5-5 5-14-7-6-6-11-16-12-21-1-16-4-20-13-22-16-3-24 2-35 23-14 27-14 35-2 47 12 13 17 27 16 45l-1 14 18 12c21 14 33 17 40 8 6-5 6-5 27 10 11 8 23 19 27 25 4 8 7 10 16 11 6 1 12 0 13-2 2-2 4-2 6 1 8 8 12 23 10 41 7 42 20 82 40 119l10 13-4 58c-3 58-3 58 4 71 6 10 10 13 18 14 5 0 19 5 30 11l21 11-17 1c-24 1-52 16-54 30-2 13 8 33 34 64 20 24 22 26 34 26 11 0 12-1 18-14 4-11 8-16 16-18 6-2 14-7 18-10 5-3 14-5 19-4 11 1 23-3 27-9s4-23 0-32c-4-6-4-9-1-14 6-9 5-19-2-30-12-20-9-25 28-39 34-12 37-17 23-38-21-32-33-65-32-88 1-15-3-19-22-21-13-1-17-3-22-9-5-7-5-9-1-14 3-4 5-10 5-15 1-9 2-9 21-9 21-1 24 2 23 15l2 10c1 2 18 15 38 28 36 22 37 24 48 45l29 44c16 21 19 23 30 24 9 1 15-1 25-9l8-6c12-12 7-22-20-59-15-20-27-39-27-42s4-10 9-17c4-6 8-15 9-19 0-11-14-30-29-36-12-6-13-6-12-18v-23c-1-10-1-10-25-14-20-3-26-6-45-19-11-8-24-19-27-25-4-5-18-16-32-25s-30-22-35-28l-18-17c-28-20-58-73-56-100 0-11-1-17-5-23-6-8-6-12-4-41 2-28 2-33-4-43s-7-16-6-46c1-28 0-35-5-44-10-16-16-19-43-21-13-1-25-3-25-4-1-1 0-5 2-10 4-8 5-8 12-3l16 7c6 0 7-1 8-10 1-12-3-22-13-37-9-12-20-15-30-8-5 3-6 3-9-1s-11-6-25-7l-21-2 13-11c17-13 18-20 4-39-10-14-10-15-7-33l3-19 14 1c15 2 17 0 19-23 0-8-1-16-3-18-4-4-4-6 2-13s10-25 6-32c-5-9-16-13-51-16-37-3-37-3-36-10 2-7 4-8 19-8h18l14-24c17-27 18-36 9-49l-8-10h1l15 1c21 2 26 6 25 23-1 18 4 35 15 44 8 6 13 8 31 9 21 0 22 0 32-11 8-8 11-14 12-23l-2-12c-7 0-34-38-39-55-3-9-8-20-11-23-10-12-51-37-62-38-10-1-21 3-26 9-1 2-2-1-1-6 0-12-9-20-26-21l-14-2 5-7c3-5 6-19 9-41l4-33-7-1c-5 0-13 1-18 3l-10 4 3-24c2-20 2-27-3-36-3-7-5-18-4-26 2-23-1-27-22-29zm4918 0c4 0 11 4 25 12l20 11 9-5c9-5 11-5 38-1l27 4v7l5 16 5 8-9-3c-8-3-11-3-16 0-6 4-6 5 0 14s6 11 0 14c-4 3-10 4-17 3-9 0-10-1-13-7-5-8-38-29-47-30-17-3-23 13-10 22 6 3 5 4-3 7-4 2-12 3-17 3-6-1-12 1-16 2-5 3-6 3-4 0 2-7-5-18-17-26-7-4-11-8-11-13l2-11c2-6 3-6 12-7l16-1c9 1 16-4 17-12 0-5 1-7 4-7zm828 11c-4 0-12 7-15 13-1 4 7 13 12 13 2 0 6-3 9-6 6-6 7-11 1-16zm-4278 2c-4 0-8 1-10 3s-4 8-4 14c-2 17 9 24 26 17l5-3c5-5 5-15 0-23-3-5-11-8-17-8zm3283 9l-2 4c-2 3-3 9-4 15-1 12-5 15-21 17l-22 4c-10 2-14 2-14-1v-1c20-14 41-26 62-38zm-500 1l-8 2c-7 2-11 5-14 10l-3 6c0 2 2 3 6 6 10 6 16 6 28-1 9-4 10-7 9-11-1-3-5-7-9-9zM-7 845c-7 0-10 1-13 5-8 7-10 27-4 39 3 6 6 8 16 9s16-1 27-10l10-8c4-5 5-8 5-17v-13l-24-3zm5718 10c-3 0-6 1-8 3-6 6-5 10 1 17 3 3 7 5 9 5 5 0 11-6 11-13 1-7-6-12-13-12zm-4196 8c-15 0-25 5-35 17-7 9-8 18-3 28 3 6 3 8-1 13-3 4-5 15-7 34-1 28-1 30 6 36 18 17 27 21 57 26 18 2 27 4 32-1 6-6 8-20 10-51 5-52 4-55-20-83-15-16-16-17-33-19zm3385 8h3l12 2c5 3 8 12 5 12-2-1-12 0-22 2-16 2-19 2-19-1 0-2 3-6 7-10 5-4 8-5 14-5zM227 883c-7 0-11 2-19 11-8 10-12 17-12 24l-1 11 21 2 20 2 10-13c17-23 13-35-13-37zm5294 87l-29 16c-20 12-27 15-27 18l3 2c6 4 33 8 44 7 10-1 22-8 25-14v-13c-2-4-6-10-10-12zm-255 9c-13 0-26 4-30 10-2 5-3 11-3 17s2 8 8 11c9 5 10 5 19 1 6-2 16-4 24-4 19 0 32-9 26-19l-13-9c-9-4-20-7-31-7zm-440 18c-12-1-27 11-26 19 0 2 0 4 2 5 12 8 41 0 44-11 2-6-7-12-18-13zm502 13h-2c-12 1-34 13-34 20-1 6 10 13 21 12 13 0 32-12 32-20 0-7-7-12-17-12zm-138 4l-10 2c-3 2-4 5-4 7 0 6 8 12 19 13 10 1 16-3 17-9 0-7-12-13-22-13zm236 2c-11 0-20 2-31 8-9 6-13 9-13 13 1 3 4 6 11 11l11 7 22-3c17-1 24-3 33-8 6-4 11-8 11-10-1-5-19-16-31-17zm-4674 13c-52-1-149 91-56 104 7 1 7 1 8 6 0 3 2 7 4 9 4 4 17 2 37-5 5-2 13-7 17-11 31-76 17-102-10-103zm3833 7c-5 0-9 5-10 11 0 6 8 15 13 15 2 0 6-2 8-5 8-7 5-16-7-20zm713 7l-17 6c-23 11-34 20-34 29 1 5 4 9 10 13l10 6 18-9c23-10 29-17 28-29-1-6-4-11-8-13zm393 1h1l1 16c0 14-1 15-4 12-4-4-4-23-1-26zm-5603 9c-11-1-17 4-22 14-5 14-3 20 9 25 11 4 13 6 16 19 3 12 4 14 13 16l23 1c6-1 10-1 11-3 2-2 2-4 2-8 1-7-4-15-19-36-18-25-21-27-31-28zm4900 7c-5 0-11 2-24 10-23 13-30 20-31 32 0 9-1 10-10 11-13 3-47 22-46 27s13 14 22 17c8 3 10 3 21-4 9-5 14-6 24-6 13 0 22-4 22-9 0-3 2-4 8-5l17-6c8-5 8-6 3-15-6-10-5-11 4-22 6-7 10-15 10-18 0-6-7-11-18-12zm-2017 17c-5 0-11 2-19 6-7 4-10 8-10 11 0 4 4 8 11 13 13 8 20 9 28 4 5-3 6-7 5-16-1-12-6-18-15-18zm1856 8c3 1 6 12 4 18 0 3-3 4-13 4-15 1-26 6-28 13s-5 4-5-3v-4c1-9 1-9 20-19 10-5 19-9 22-9zm-3702 0c-10 1-20 14-21 36-1 9 11 40 16 43 2 2 11 3 19 4h14l-1-10c0-6-2-16-4-22-2-5-4-15-4-22-2-20-10-29-19-29zm3462 8c-7 0-14 2-21 7l-11 7 8 6c16 12 40 8 39-6 0-9-6-14-15-14zm-3326 35h-2c-14 2-14 32 1 39h4l1-20c0-17-1-19-4-19zm-56 7l-2 2c-1 2 0 5 1 6 2 2 2 1 3-2l-1-5zm-506 23l-5 1c-3 2-6 4-6 7-1 5 6 15 11 15 3 0 6-1 8-3 6-6 5-11-2-17zm303 1c-5 1-12 7-28 22-21 20-24 22-30 23-8 0-12 4-13 14-1 13 2 22 12 42 6 10 10 19 9 22 0 4 1 7 5 10 5 5 6 5 12-1 5-4 8-9 10-14l4-11c3-3 13-3 21-1 4 2 4 3 2 7-3 8 3 12 22 18 13 5 16 5 19 2l5-8c0-4 2-5 7-7 9-2 15-8 16-14 0-5-1-7-15-21l-16-16-11 5c-8 3-11 4-12 1-1-1 0-11 3-21 6-27 5-29-7-42-7-6-10-10-15-10zm2346 4l-4 4c-3 3-5 8-5 17l-1 12 12 12c11 11 13 12 20 12l12-1 8-6 5-4-24-23zm-316 8l-5 1c-11 1-35 15-35 20 0 4 16 14 21 14l17-7c11-5 14-8 16-13 3-8-4-15-14-15zm2136 3c-8-1-45 21-48 28l-2 8c0 6 3 11 9 15 5 4 7 4 15 1 6-2 20-10 31-18 17-11 22-15 21-18-2-5-19-16-26-16zm-2851 8c-4 0-8 2-13 7-8 8-9 13-3 19 4 3 8 4 18 4 22-1 25-9 11-23-5-5-9-7-13-7zm-1966 17c-4 0-7 1-10 3-2 2-4 11-5 20-1 21 5 30 23 31 11 1 19 0 23-4s4-12 0-24c-6-15-20-26-31-26zm1862 13c-5 0-15 11-14 14 0 2 4 7 8 12 6 7 9 9 16 11 10 2 17-4 14-12s-20-25-24-25zm2317 15c-5 0-9 0-12 2-4 2-10 10-13 17l-7 14 10 7c10 7 13 7 30 8 16 1 21 0 28-4 9-5 13-14 11-23-2-11-29-21-47-21zm-1193 1c-4 0-8 2-13 7-10 9-10 16-1 25 6 5 9 6 15 5 14-4 20-21 10-31-4-4-8-6-11-6zm114 7c-14 0-26 5-39 17-6 8-15 13-25 16-18 6-29 8-39 6-11-2-21 2-33 15-7 6-7 7-4 13 2 5 2 7-4 12-3 3-6 8-6 10 0 3 15 19 22 24 6 3 11-2 14-11 2-7 2-7 10-3 6 2 13 8 23 18l15 15v18c-1 15-2 20-5 24-5 5-4 8 6 18 5 5 8 6 10 5 2 0 10-8 19-16 17-17 17-18 7-27-3-3-5-8-5-12-1-5 0-6 3-5 2 0 5 1 6 3 7 6 9 6 22-8l19-16 26-2c14 0 22-1 24-3 5-5 5-22-1-31-5-8-3-12 8-23 4-5 4-6-1-21-7-22-12-26-29-28l-23-5zm-3115 30c-6 0-10 1-12 4-3 3-11 7-18 10s-14 8-16 12c-5 11-5 23 0 30 4 5 9 7 46 10l42 4 1-9c1-20-3-36-13-48-8-10-11-12-24-13zm4124 1c-8 0-12 1-20 6-13 7-19 12-19 16l2 3c8 5 32 9 43 7 9-2 32-16 33-21 2-5-11-10-29-11zm-769 1c-4 0-7 1-10 5-13 12-13 26 0 38 7 7 9 8 19 8 14 1 19-3 19-15 0-11-4-18-13-28-6-5-11-8-15-8zm-109 10l-4 3c-7 5-7 13 0 20 3 3 6 5 8 5l7-6 6-7-8-8c-5-5-7-7-9-7zm-2288 18c-4 0-7 1-9 3-8 8-6 17 4 20 6 1 16-8 16-14s-6-9-11-9zm523 1c-4 0-7 1-9 3-5 5-6 24-1 29 2 2 8 4 13 4s7 0 9-2 2-5 3-11c1-7 1-15-1-17-3-4-9-6-14-6zm-558 6c-4 0-9 1-10 3-2 1-6 10-9 18-6 14-6 17-3 20s8 4 16 4c10 1 13 0 18-5 9-9 11-28 3-36-2-3-9-4-15-4zm3299 3c-8 0-19 5-23 12l-1 3c0 2 2 4 7 7 6 5 10 6 16 4 12-2 19-6 20-13 2-6-6-12-17-13zm197 3c4 0 6 3 7 9l2 7-12-1c-11 0-12-1-13-4v-1c0-3 3-5 7-7zm-1425 3l3 2c0 3-1 4-3 1-2-1-2-3 0-3zm309 9c-6 0-10 6-11 18 0 11 0 12 9 21l15 12c8 3 12-3 12-16-1-14-2-19-10-27-6-5-11-8-15-8zm1798 49l-4 4c-9 9-13 19-13 29 1 8 2 11 8 17 5 5 9 7 12 7l14 3c5 2 11 3 13 2 8-3 12-9 13-14 0-5-3-8-22-27zm799 120l-1 19c-1 15 0 23 5 35 4 10 7 23 7 34l1 19c129-169 133-168-12-107zm-1380-100l-2 1c-6 1-35 17-48 27-5 4-7 6-7 8l3 3c8 5 31 10 39 9 10-1 20-8 25-17l6-9c2-1 3-4 3-7 0-6-12-15-19-15zm-569 15c-4 0-12 5-37 19-31 18-36 21-36 25l1 1c2 8 12 13 24 15 11 1 11 1 36-13 28-17 31-20 25-35l-8-10zm1113 5c-4 0-8 3-10 11-4 13 3 30 13 30 2 0 7-3 10-7 10-10 10-17 1-26-6-6-10-9-14-8zm-1746 41l-4 5c-7 6-10 19-7 28 5 15 18 21 33 16l11-7 3-4-18-19zm-206 58c-3 0-5 1-7 4-6 5-5 10 1 16 3 3 7 6 9 6l8-4c5-6 5-10-2-17-3-3-6-5-9-5zm79 21c-7-1-12 5-9 12s9 13 14 13l8-4c8-8 4-17-9-21zm-469 10c-5 0-10 1-13 4-6 6-4 18 4 31 7 11 15 17 22 18 3 0 6-3 15-12l11-14c0-4-15-20-22-24-5-2-11-3-17-3zm2424 43c-2 0-3 1-5 3-3 3-4 9-4 26 0 21 0 23 6 29 5 5 11 7 18 3 9-4 10-7 5-16-4-7-4-9 0-16 3-7 3-9-1-14l-12-11zm-4624 10l-6 2c-10 5-19 17-20 28-1 12 15 59 23 68 5 4 7 9 9 16 1 9 2 11 19 28 19 19 21 20 29 12 3-3 3-5 2-8l7 5c4 5 10 8 12 8s6-2 9-6l6-6-32-32-31-31-5-13-5-36c0-22 0-23-8-29-4-4-6-6-9-6zm4491 38l-11 1c-18 3-21 11-8 25 6 6 8 6 18 5 9 0 13-2 17-6l5-5-11-10zm-2262 13c-4 0-8 4-18 14-9 9-11 10-20 10-5 1-11 2-12 4-3 3-4 18-1 27 3 8 12 15 18 14 5-1 9-4 23-20l18-18v-12c0-8-1-13-3-16zm846 5c-3 0-9 2-12 5-3 2-5 3-5 5l6 5c5 4 11 7 14 7 7 1 18-5 17-9 0-5-13-13-20-13zm1402 19c-8 1-18 7-30 19-11 11-13 13-13 19 0 5 2 7 11 15 6 5 13 9 16 9 9 0 18-10 17-21 0-8 1-9 8-15 10-8 11-13 4-20-4-4-9-6-13-6zm-815 1c-4 0-8 1-13 4-6 3-10 7-9 11 0 4 5 9 15 15 19 12 27 14 40 6 6-4 9-7 9-11s-3-7-15-14c-11-8-19-12-27-11zm1605 18c-6 1-12 3-17 6-13 8-16 23-5 27 10 4 30 5 34 1 5-6 6-28 1-31-4-2-9-3-13-3zm-1719 2l-9 2c-3 2-5 4-5 6s3 5 8 9c5 2 11 5 14 5 8 1 18-6 15-10-3-7-13-12-23-12zm745 19c-4 0-6 1-11 7-5 4-8 9-8 11 0 5 25 30 28 29 7-3 9-8 9-18 0-19-5-27-16-29zm-62 7l-12 3c-8 4-20 16-21 22-1 5 1 7 10 16 8 8 12 11 16 11s7-2 14-9c10-10 13-15 13-26 1-10-8-17-20-17zm-525 0c-3 0-6 2-10 7-6 6-8 9-8 17-1 16 11 28 28 29 13 1 17-3 18-18v-13l-11-11c-8-7-12-11-17-11zm1502 20c-9 0-16 11-17 24-1 10-2 11-8 10-5 0-25 7-45 17-31 14-41 21-58 38-23 23-40 35-65 43-9 3-18 7-20 9-6 4-7 30-2 37 7 9 32 10 50 2 7-4 18-7 23-7 12 1 50-17 70-32 12-11 18-13 27-12s15-2 36-20c16-13 30-22 37-23 7-2 14-5 19-10 6-6 10-15 11-24 0-12 0-13-8-14-4 0-11 1-15 3-11 6-11 6-9-7 1-9 0-12-9-22-5-6-13-12-17-12zm-746 3c-4 0-8 3-14 8-8 7-11 11-13 16-2 7-2 7-14 7-10 0-13 1-18 7-6 5-10 7-30 10-19 3-25 3-31-1-7-3-8-3-13 2-4 3-6 9-8 17l-3 12-9 3c-10 3-16 8-18 14-1 4-2 4-7 1-3-3-9-4-14-4-11 0-38 9-42 13-3 3-3 5 2 11l13 14c7 6 8 9 9 15 0 5 2 8 7 14 7 7 9 8 18 8 6 0 12-1 14-3 4-4 7-3 7 4 0 5-1 5-8 6-8 1-13 5-17 16-3 7-4 8-9 8s-9 2-14 7c-6 6-9 8-15 8-6-1-8 1-15 7-7 7-8 9-7 20l1 11-8 3c-25 9-64-2-67-20-2-9-2-14 2-25 3-7 3-10 0-15-4-5-4-7 0-15 5-8 5-9 0-15s-5-6-21-1c-22 8-30 17-30 36 1 6 2 8 6 11 4 2 8 4 11 4 5 0 5 2 6 30l1 30 9 8 8 7 9-4c6-2 15-4 29-4h20l-3 7c-2 3-3 7-2 8 2 1 4 5 5 8l2 5-8 2c-11 3-17 10-13 16l1 3c-5-4-13-3-19 3-9 9-9 14-1 24 14 17 31 20 46 8 5-4 13-8 18-9s11-4 14-8c5-5 6-8 6-17 0-10-1-13-7-20-4-5-6-10-6-12s9-3 31-3c34 0 39-2 37-13-2-8 0-11 23-35 19-18 20-21 22-28 0-5 3-10 6-14 6-6 9-14 8-24s1-15 13-27c9-9 10-12 10-18l1-7 11-4 20-4c12-2 21-11 22-22l1-9 21-5c13-3 24-7 26-10 4-3 4-10 4-34 0-27-1-32-5-36s-7-6-11-6zm-2395 6l-12 9c-16 12-18 18-8 29 7 8 8 8 19 8s13-1 20-7c4-4 7-9 7-11-1-3-5-8-14-16zm1155 4c-4 0-8 4-16 11l-11 11 8 20c7 18 7 21 4 27-2 5-2 9 1 21 3 8 6 17 8 19l4 4h-6c-5 0-9 2-13 6-5 5-6 8-6 19 0 13 4 19 11 18 4 0 4 2 4 17 0 9 2 20 4 26 3 8 4 11 1 15-9 14-1 23 25 29l16 4-1 22v23l-9 1-11 4c-4 4-4 16 1 32 5 14 5 57 1 56-5-1-20 5-25 10-11 10-12 21-5 44l5 14-8-8-8-7-12 4c-6 2-17 4-24 4-21-2-26 0-37 11-8 8-12 10-19 12-6 1-12 4-16 8s-8 6-14 6c-7 1-9 2-22 15-12 12-15 14-23 16-15 3-36 10-40 14-3 3-3 4 2 9 7 7 8 19 4 40-3 18-4 18-10 20-10 3-15 8-11 14 1 2 4 6 7 7 7 4 36 9 44 8 10-2 32-17 47-31 10-11 10-11 9-20l-2-9 9 4c10 4 10 4 5 8-3 1-7 5-9 9-4 5-4 9 0 27 3 14 6 22 9 25 6 6 85 19 91 15 5-3 5-3 5 2 0 3 2 7 4 9 5 5 5 5-7 8-6 2-12 4-14 7l-4 4 13 13 14 14-6 1c-7 1-18 11-18 17 0 5 10 14 17 14h6l1 9c1 5 3 10 6 12 3 3 5 2 12-2 7-5 9-6 14-3 6 4 14 3 20-2 5-5 15-9 21-8 3 0 4 1 4 5 1 9 8 13 19 12l9-1 30-29 29-28-17-17c-14-14-17-18-17-22 0-10 8-13 17-8 11 6 20 7 31 1l15-4c8 0 19-11 21-23 0-5 3-10 5-13 5-5 11-18 9-20-3-3 1-5 8-6 9-1 19-11 22-22 3-9 5-9 15 1 8 8 10 9 19 4 7-4 32-6 42-3l13 10c12 12 18 13 26 5 6-7 7-8 5-21-2-23-7-34-22-49-6-6-13-14-13-16-2-4-1-5 7-6 8-2 11-4 19-12 10-10 10-10 34-13 18-3 24-3 29 0 6 3 6 3 16-5 12-9 17-10 31-5 5 2 17 4 26 4 8 0 22 2 29 4l14 3-1 12c-1 17 5 24 29 30l16 4 11-11c9-9 11-12 12-18l1-8 1 6c2 7 34 39 40 39 2 1 7-2 11-6 12-12 11-31-2-44-4-4-6-8-5-9 2-2 25-9 34-10 10-1 19-12 19-21v-8h36l13 11c12 10 14 11 22 11 8 1 10 0 16-7l6-8 7 7c8 8 17 11 24 8 4-1 11-7 18-14 12-12 22-18 30-17 6 0 13-7 12-13-3-8-13-16-22-17-11-1-12-3-8-21 2-9 2-16 0-25-4-14 0-28 9-33l13-4c11-1 23-14 21-22-1-9-9-15-19-15-8 0-10-1-17-8-11-11-16-10-31 5-17 17-18 20-8 32 4 5 7 11 7 13 0 6-4 4-13-4-5-5-10-8-15-8l-8-2-2-7c-1-11 1-14 8-14 4 0 9-3 12-6 4-4 5-7 3-14l-3-13c-1-2 0-2 2 0s9 3 17 2c19-2 22-6 21-26 0-13-1-16-6-21-8-9-16-7-29 6-9 9-9 10-9 22l1 12-7-7-15-12c-10-5-33-7-48-3-12 4-14 5-29 20-24 23-31 23-54 2-13-13-16-18-15-26 1-10-7-13-36-12-28 0-35-1-43-9-6-6-40-15-55-14-8 0-14-1-20-4-9-5-18-5-23 0-2 3-2 5 4 13 8 13 6 17-10 20-18 4-20 8-15 24 4 11 7 16 14 23l9 9-3 10-5 12c-1 1-12-2-24-7-25-8-29-11-29-26 0-6 0-6 5-7 10-2 17-12 22-30 4-14 4-17 1-20s-6-3-19 1c-16 5-23 11-22 15 0 3-20 0-23-3l-1-9c0-8-5-15-11-15-2 0-8 4-12 8-5 5-10 9-12 9s-6-3-9-7c-13-17-25-10-27 16 0 8-2 18-4 21-4 5-3 19 1 26l13 14c9 8 15 11 33 17 26 10 33 15 25 19-2 1-5-1-11-7-11-11-17-12-34-5-15 5-24 5-36-1l-7-4-14 13c-8 9-14 16-15 20-2 6-2 6-7 3-8-6-11-13-12-27 0-7-4-28-8-47-7-30-9-34-16-41-4-4-10-8-14-9-5-2-7-3-7-5s-2-6-5-9-7-10-9-16l-4-11 27 26c24 24 28 27 35 29 11 3 16 0 32-15 12-12 16-15 24-17 5-1 10-4 13-7l4-5-11-12c-13-13-16-18-14-26 1-6-3-13-9-13s-15 12-16 19v6l-21 1c-14 1-26 0-32-2-21-8-20-8-28-1-5 5-8 8-7 10 0 3 0 3-2 1s-5-1-10 2c-3 3-8 5-9 5l-5-9c-1-5-6-13-11-19-6-7-9-12-10-17-2-11-7-16-16-13l-11 7c-3 5-3 7 0 17l4 12-9-1c-15 0-51-13-54-18s-3-5 2-5c9-1 34-9 38-13 3-3 3-5 0-13l-7-22c-2-12-4-15-12-22-6-7-9-12-12-20-2-8-5-13-12-20-5-5-9-8-13-8zm1360 5c-4 0-6 1-9 6l-6 6 12 13c10 11 13 12 18 12 7 0 17-9 18-17 1-4 0-7-5-12s-9-6-19-8zm-487 1c-4 0-7 2-12 7-10 10-9 13 4 27 8 8 11 10 16 10 7 0 17-9 18-17 1-4-1-7-10-16-8-7-12-11-16-11zm-401 14l-10 1-16 14-11 12 9 11c6 8 10 12 15 14 8 3 14-2 17-15 1-7 3-11 8-16 8-8 8-11 1-17-2-3-8-4-13-4zm1497 6l4 4c2 3 10 7 16 8l12 2-15 6-15 6-2-15zm-4687 24c-4 0-6 1-9 3-7 7-10 26-3 30 6 3 24 4 33 2l4-2c2-2 3-5 3-12 1-14 0-15-17-20zm3225 2c-11 0-14 13-4 23 4 4 8 10 10 17 5 13 9 18 17 19 4 1 7 0 13-7 8-7 8-9 6-13-1-3-10-13-19-22-13-14-17-17-22-17zm-154 12c-6 0-8 9-7 27 1 19 2 23 9 35 9 16 16 24 20 22l10-8c9-9 9-11 1-19-7-6-11-17-11-32-1-12-1-13-8-19-6-4-10-7-14-6zm-2678 8c-2 0-4 1-6 4-4 3-7 7-7 9 0 5 6 12 11 12s13-9 13-14c0-2-3-5-6-8zm2278 49c-8 0-18 11-18 18s8 16 16 17 13-5 13-18c0-12-3-17-11-17zm-3656 78h2c7 1 25 22 24 30l-1 5h-1c-2 0-9-8-16-18-10-13-12-17-8-17zm5272 11l-17 15-18 17 3 6c3 4 6 3 12-1 5-4 13-8 19-10l9-5c3-3 2-6-3-13zm590 12c-18 0-27 14-17 29 5 6 4 7-5 6-6-1-12 0-14 2-11 11 0 30 18 31 7 1 15-2 19-7 7-6 9-15 0-20-6-2-5-3 7-6 28-3 8-33-7-35zm-1917 10c-7 0-14 2-17 5-5 5-4 9 4 17l6 6-7 7-6 8 8 10c8 8 10 9 15 8 6-1 13-6 16-14 2-5 2-6-4-11-5-6-5-7-1-11 7-7 8-16 3-21-3-3-10-4-17-4zm1912 124c-17 16-18 26-4 38 13 12 20 27 18 44 176 50 215-299-14-82zm-1637-115c2 0 6 3 11 7 6 7 8 8 28 8l24 2c6 3 12 10 15 19l7 15 8 10c4 7 0 8-10 4-6-3-17-4-25-4l-15-1 3-6c5-5 5-5-2-12-6-6-7-6-12-2l-7 8-8 10c-5 5-8 8-7 11 1 8-6 9-13 2-3-2-2-3 2-4l9-7c4-5 4-5-5-15-7-9-8-11-8-24 0-15 1-22 5-21zm982 9c-3 0-9 5-21 17-22 20-23 22-18 26 1 2 12-6 24-17l5-5c13-12 15-16 12-19zm437 19c-12 0-18 10-15 27 1 7 3 8 13 8 7 0 11-1 14-3l3-6c6-12 0-25-12-26zm-2850 7c-8 0-13 5-12 10 0 3 2 5 5 8 12 7 25 6 29-3 2-4-12-14-21-15zm-1161 3h-2c-8 2-13 8-14 16-1 7-1 7 16 25 20 19 24 21 40 17l11-5c3-3 3-3-22-29-21-21-25-24-29-24zm2795 7l8 2 13 7c2 3 0 3-9-1-11-4-16-9-12-8zm-1886 13c-7 0-8 1-8 3v1c4 14 49 16 58 3l1-4c-17-3-34-4-51-3zm275 2c-7 0-14 1-18 3-3 2-5 8-5 13s2 9 4 10l29 10c21 6 24 7 29 4 4-2 6-7 6-14 0-9-2-12-9-17-9-5-23-9-36-9zm1000 0l2 6-2 3c-1-1-2-4-1-6zm-1433 16c-3 0-7 3-13 9-13 14-14 20-4 29 4 3 11 6 15 6l7 2v15c1 13 1 15 8 22 6 6 9 7 15 7 5 0 8 1 14 7 9 9 14 9 35 0 16-7 18-7 21-3l2 1c-20 9-1 26 40 31-2 4-4 8-6 9-9 10-8 13 4 25 9 9 13 12 26 16l16 6 6-6c5-5 7-9 8-16 2-13 0-18-17-36 15-2 31-6 33-8s4-10 4-17l1-13h-16c-9-1-23 0-32 2l-24 2-1-4c-1-5-4-12-7-16-4-5-6-11-7-18-2-19-11-21-26-7-5 6-6 8-5 13 0 3 0 8-2 9-2 2-4 2-9-4-10-10-15-11-24-7-5 3-12 5-17 5-11 0-13-3-15-18-2-19-4-21-14-32-8-8-12-11-16-11zm3185 15l-2 22-2 22 13 10 13 10 13-5c6-3 13-8 17-12l7-9-14-3c-15-1-17-4-18-23-1-12-1-12-14-12zm235 8c-3 0-7 1-10 4-12 11-6 37 9 39 5 0 11-3 15-7 4-3 7-9 8-14 1-12-11-22-22-22zm-1208 1c-4 0-7 2-11 6-5 4-9 6-15 7-18 2-21 14-6 28 6 7 10 9 19 11 8 1 13 4 17 8 7 6 12 8 18 6 7-3 12-13 12-23-1-12-6-22-18-34-7-7-12-10-16-9zm-321 5l5 3 6 10c2 3 1 3-5-3-5-4-8-9-7-9zm-1722 6h-5v1l3 2h8c2-2 2-2-3-3zm-266 18c-2 0-4 1-6 4-7 7-7 11 2 19 5 6 8 7 13 6 3 0 7-3 9-6 4-4 4-6 0-11-2-5-6-8-11-10zm-936 18c-7 0-15 2-20 6-9 7-11 7-50 4-45-4-57-2-67 11-3 4-5 11-6 15 0 9 24 60 33 69 5 6 55 11 66 7 5-1 21-15 37-29 21-19 33-28 42-30 5-1 8-2 11-5 6-4 6-12 4-27-2-12-3-14-11-15l-12 2-2-2-6-3-5 1c-3-3-8-4-14-4zm2594 12l2 2c2 2 2 4 0 6-2 4-1 6 3 12 4 4 5 7 4 6l-9-3c-4 0-9-3-11-5-4-4-4-4 3-12zm28 5l4 2 1 5-4-2c-3-2-3-4-2-4zm-2514 10c-10 0-11 1-20 10-18 17-17 17-4 31l12 11 1 18c0 16 1 18 7 22 6 5 6 6 1 6-7 2-16 11-17 18-1 5 6 16 9 13 1-1 6 0 12 2 13 5 17 4 24-2 6-6 4-10-10-23l-10-8h7c6 1 9 3 15 8 8 8 10 8 21 3 8-4 8-4 12 2 6 8 6 18 1 28-4 8-4 8 5 25 5 10 12 20 14 22 4 5 6 5 21 0l16-4 15 14 15 15h15c24-1 31 1 43 14 6 6 12 10 14 10s7-3 11-7c5-4 9-8 11-8 1-1 9 5 19 14 22 22 23 23 25 33 1 8 3 11 16 23 18 18 23 21 39 21h13l14 15c21 22 39 37 49 38l11 5c3 3 2 3-4 5-4 1-8 4-10 6l-4 4 21 21c21 21 30 28 36 26 5-1 11-7 14-15 2-6 4-8 9-9 7-2 12-7 10-11 0-2-12-14-26-27-27-25-32-31-35-49-1-7-1-7 5-7l7 2 10 4c8 2 8 2 8 8-1 4 1 7 5 10 5 4 8 5 18 3 11-3 13-4 22-13 8-8 10-12 13-20 3-12 9-20 11-14 4 9 10 14 21 18 7 2 13 5 17 9 5 5 8 6 14 6l25 4 18 4 19 18c22 21 26 23 34 15l5-5-7-10c-4-5-9-13-10-18l-9-15c-5-4-7-8-7-14-1-7-2-10-10-17-9-8-14-18-14-30v-7l26-8c36-12 42-12 43 2 2 11 11 18 33 24l21 6-4 10-6 9 22 22 21 21-6 8c-5 6-5 8-2 13 7 9 17 18 23 20 5 1 6 1 8 7 1 4 4 9 6 11 5 5 5 5-2 10-3 3-6 6-5 8 0 1-3 4-8 6-12 6-16 13-20 30l-4 14 10 9c9 10 14 17 12 20l-9 2c-6 0-10 2-15 7l-7 7 10 29 10 28-6 6c-5 5-5 6 0 21 5 17 9 22 18 23 4 0 10 2 15 6 10 9 73 24 79 20 6-5 5-16-3-40-5-14-8-24-6-24 1-1 6 2 11 6 11 9 17 10 27 8l10-1 3 17c1 10 4 19 6 21s15 4 34 6c28 2 32 3 40 8 10 8 19 9 34 4 16-6 37-8 46-5l8 3v10c-1 11 3 17 12 20 3 1 4 2 5 6 0 6 12 18 17 18 2 0 6-3 10-7 7-6 7-7 7-37 0-21-1-31-4-34-2-2-9-4-17-4-10-1-15-2-16-4l-12-17c-9-10-11-14-11-20s-1-10-7-15c-4-5-7-9-8-15-2-11 0-28 3-29 2 0 6 3 10 7 11 10 21 15 32 15h10l1 6c0 8 6 15 15 16 6 1 7 1 9 8 1 4 6 12 11 18l10 10-5 5c-6 6-7 25-1 31 3 2 11 6 19 8 12 3 15 5 16 8 1 7 14 19 22 20l17 5c12 4 41 2 47-4s5-26-3-46l-6-17h10l23 4c14 5 30 6 42 1 8-3 16-11 20-19 3-6 3-7-4-14s-9-7-21-8c-8 0-17-2-21-4-5-3-15-4-28-4-19 0-21-1-27-6-8-8-34-17-51-17-12-1-13-1-24-12-9-8-11-10-9-10s7 3 9 6c7 7 12 7 19-1 8-7 13-8 22-2l6 4 12-12c8-8 15-13 26-18l17-11c3-3 2-4-6-13s-10-12-10-19c0-9 2-12 4-6 3 10 12 16 31 20 14 3 19 6 27 12 5 4 10 8 12 8 5 0 19-14 19-19 0-2-4-8-9-13l-8-9 7-10c4-5 8-11 8-13 1-3 2-4 6-5 7-1 18-12 18-17s-7-11-12-11l-13 4c-3 1-17 3-29 2h-22l-8-8-7-9 5-18c5-17 10-27 21-46 6-10 6-24 2-29-5-5-12-3-20 5s-12 8-21-1c-7-7-8-7-25-7-16-1-17-1-10-3 4-2 9-4 10-6 3-4 2-5-3-11-4-5-9-8-14-10-7-2-8-3-10-10-3-8-3-8 4-10l9-4c3-3 3-3 7 10 2 6 6 13 8 15 4 4 1 7 31-28l8-10-22-22-8-9 29-5c6 1 10 0 14-3 6-4 6-5-2-11-7-5-13-8-22-10-7-1-14-4-17-5-4-3-5-11-1-18 2-4 3-4 10-2 11 3 18-2 26-18 6-12 6-15 1-18l-12-5c-5-1-7-2-10-7-4-8-12-14-22-15-7-1-10 0-31 12l-23 13 8 10c5 7 6 10 3 11-2 1-17-1-32-4-41-8-44-8-62 2-9 6-15 9-14 13 0 5 11 12 34 27l6 4c-7 4-16 4-20 0-4-3-6-3-13 1l-9 5-18-17-18-16-5 3-15 13c-8 8-9 9-9 21l2 19 1 7-5-7c-3-3-7-14-10-24-6-25-11-30-29-30-11 0-14 1-19 6-6 5-7 8-7 18s0 12-6 17c-5 3-7 7-9 12-1 6-2 7-5 7-6 0-5-6 4-16 4-4 7-10 7-12s-5-9-10-14c-12-12-16-13-29-2-12 11-14 20-9 35l5 26c0 8 2 16 3 17 3 3-1 4-14 4-14-1-14-1-23-11-8-9-18-14-28-13s-14 5-15 15c-2 14-7 18-20 13l-14-3c-1 1-6-3-10-7-6-6-9-8-16-9-8-1-10-2-27-18-17-17-18-18-20-28-2-9-3-12-10-17-4-3-9-5-11-5-4 1-16 16-16 20 0 2-7 1-20-1-25-5-28-5-35 2-5 5-6 8-6 23s0 16-5 16l-10-7c-3-3-9-6-13-7-5 0-11-4-18-9-10-8-10-8-18-4-10 4-19 5-33 0-15-5-28-5-42 0-12 5-14 4-26-7-5-4-7-5-10-2l-14 11-11 10-33-12-34-11-6 7c-6 6-9 7-22 8-20 2-26 0-36-12-11-14-18-17-35-18l-16-1-22-22c-22-22-22-22-24-33-1-8-3-13-9-18-18-18-27-15-26 9v15l-15-5c-10-4-21-6-34-6l-20-1-10-9c-7-8-11-10-16-11l-7-1 4-4c10-11 6-28-12-46-11-11-12-11-23-12-12 0-14 1-20 13-4 7-17 2-29-10-9-9-11-10-20-10zm939 7c-10 0-19 3-24 7-3 4-3 4 8 15 7 7 13 12 18 14 4 1 6 3 6 4-1 4 9 13 18 15 7 2 9 3 10 7 2 5 1 7-6 14-9 9-10 16-2 23 4 4 8 6 15 7 8 1 12 3 17 8 7 6 8 7 27 7 15 0 21-1 25-4 7-8 0-19-16-22-17-4-17-7-2-21 5-4 7-7 5-10-2-8-6-10-23-10-10-1-18-2-20-4s-3-9-3-20c0-8 0-16-2-18-16-6-33-10-51-12zm-576 1l-4 1c-4 5-7 21-4 28s19 22 24 24c6 1 11-8 11-20 0-11-1-12-9-20-8-9-14-13-18-13zm2194 5l2 7c3 8 2 10-1 7-1-2-2-5-1-8zm-227 2l5 1c6 2 9 10 8 22-1 5-2 10-4 12-1 1-9 3-17 3-13 1-15 1-20 7l-5 7-5-6c-8-8-14-9-26-7-15 2-21 0-24-7l-2-5 7 3c10 5 21 1 33-11 10-10 12-11 26-14 13-3 19-5 24-5zm177 6l4 3 10 6c6 2 7 3 9 13 2 6 3 17 3 25 0 17-2 21-14 23-14 2-24 1-25-2-2-5 5-17 15-27l9-9-3-11-5-16zm1876 3c-4 0-8 2-10 3-2 2-4 9-4 14l2 15c6 7 15 5 21-1 4-3 6-7 6-13 1-11-3-17-13-18zm-225 4c-3 0-7 2-17 7-13 7-18 12-27 28s-12 19-22 21l-12 3-2 20-3 20-14 4c-8 3-18 8-21 11-6 5-6 5-1 10l10 9c4 2 7 1 16-7 6-6 12-15 13-21 2-8 6-11 22-18 19-8 34-23 42-42 3-7 10-17 16-23 12-12 12-12 7-17-4-3-5-5-7-5zm-5295 5c-8 0-12 1-17 4-12 7-20 23-21 43-1 13-2 15-9 16-8 1-18-5-26-16-2-3-9-5-16-6-11-1-15 1-28 11-12 11-14 14-14 23 0 10 0 10 20 15 15 3 24 7 35 16 14 11 14 12 14 29 0 21 4 28 15 29s17-7 21-27c3-24 14-34 36-35 9 0 23-4 34-10l18-9 2-38 2-38-36-4zm5407 1c-3 1-5 3-10 8-12 12-13 19-3 23 6 2 12 0 17-4 3-3 6-7 5-12 0-5-2-10-5-13zm-359 1c-3-1-23 17-24 21l10 15 10 13 9-6 7-6c9-8 8-14 0-25-5-7-10-12-12-12zm-5203 0c-5 0-11 1-12 3-6 5-6 18-1 26 6 9 18 9 25 2 4-3 6-7 6-13 1-12-4-17-16-18zm1223 12c-4 0-10 3-16 10-12 12-13 17-4 26 5 5 9 7 13 7 5 0 8-2 15-10 12-12 14-18 5-26-4-5-8-7-13-7zm467 13l-7 7c-6 7-7 8-7 20 0 11 1 14 6 18 6 7 17 10 27 9 14-2 27-30 17-39-3-3-12-7-20-10zm553 15c-5 1-11 4-18 11-15 15-14 27 3 25 17-1 30-23 20-34zm-617 8c-2-1-4 1-7 4-5 4-5 6-4 11 3 8 9 13 16 14s13-4 14-12c0-5-7-14-15-17zm-377 15c-8 1-14 2-21 6s-16 7-20 7-9 0-10 2c-4 3-2 27 3 34 2 3 10 9 17 12 9 3 19 11 28 23 15 19 16 19 35 20 14 2 22 1 26-3 3-4 4-10 5-19 1-14 0-17-8-26l-21-20c-7-5-12-12-12-17-2-17-3-17-17-18zm614 5l-6 5c-12 11-7 27 9 27 17 1 20-12 6-24zm3615 30c-4-1-33 57-32 62 0 3 4 7 7 9 3 3 14 6 23 8l17 3 3 15c3 16 10 28 15 29 4 0 38-22 46-30l2-2c1-4-27-38-35-44-4-2-13-5-20-5-14-1-14-1-15-14-2-14-8-31-11-31zm-645 1c-6-1-25 10-26 13 0 2 6 7 14 13l13 10 13-12c10-10 11-12 8-17-4-5-10-7-22-7zm-797 3c-3 0-7 2-10 4-9 9-4 23 8 21 16-3 18-24 2-25zm-583 6l8 8c7 7 11 9 22 12 20 5 20 5 16 5-5 0-10 5-10 10 0 2 2 6 5 9 4 4 8 5 13 5 4-1 7 0 7 1 1 4-1 5-12 5-12 0-20 2-29 8-10 7-10 7-12-1-1-5-3-10-9-15-7-7-7-8-3-9 12-4 16-16 9-29zm-100 7h2c3 0 5 1 5 2l-5 1c-4 0-6-1-6-2zm-3379 3c-6 0-11 4-19 12s-14 17-14 22c-1 7 1 9 15 13 15 5 15 6 18 21l2 15 27 1c25 1 29 1 43-7l11-8c3-3 5-6 5-10 3-14-7-22-25-24-11-1-17-5-34-18-13-12-21-17-29-17zm4015 1c-7 0-19 11-18 17 0 5 37 45 45 50 5 3 6 3 11-5l14-16 9-8-18-16c-19-17-29-22-43-22zm-805 12c-5 0-10 6-12 12-2 5 4 12 12 14 7 1 14-5 13-12-1-6-9-14-13-14zm392 1l-1 7c-2 9 2 21 9 28 2 2 5 7 5 11 1 6 3 9 13 19 6 6 11 12 10 13l-6 1c-15 2-28 8-38 18-6 5-11 10-13 10s-6-3-10-7l-8-8h13c10 0 14-2 19-6 7-7 7-13 1-23l-4-13c1-3-1-7-4-10-5-5-5-6 0-10 3-3 6-7 6-9 3-5-6-13-16-14l-7-1 7-1 16-4zm-2825 19c-4 0-7 2-10 6-4 5-5 11-5 20 2 26 20 44 47 47 11 1 19-1 24-6 3-3 5-9 6-17 1-17-5-25-20-26-9-1-16-4-24-12s-13-12-18-12zm-868 4c-4 0-8 1-10 3s-4 9-4 16c-1 14 2 20 13 21 4 0 9-1 11-3 4-4 7-21 4-30-1-4-8-7-14-7zm3263 1c-12-1-24 23-15 33 4 3 14 4 22 0 6-2 11-9 11-15 0-7-8-17-17-18zm-589 0c-1 6 0 13 1 19l2 11-24-23-4-4zm-2254 1c-3 0-6 2-10 4-7 7-8 23-2 32 5 7 16 9 22 4l2-2c10-18 1-39-12-38zm2462 14l-9 5c-8 9-16 11-30 10-11 0-13 1-19 6-7 8-7 11-3 18 2 3 4 11 5 18 7 42 13 54 30 56 5 1 11 4 13 6 7 7 11 8 49 8 25 0 36 1 42 4 4 3 11 4 17 4 10-1 20-8 22-17 2-6-8-16-17-18-6-2-7-3-10-14l-3-28c0-22 0-25-10-34-6-6-9-7-22-8-19-3-37-8-55-16zm-2686 12c-4 0-9 3-13 10-14 19-10 48 7 49 5 1 10-1 13-4 4-4 6-12 6-21-1-22-6-34-13-34zm1562 2c3 1 6 2 8 6 6 7 5 9-5 10l-8 1v-8c0-7 1-8 4-9zm1650 1l-45 26-46 26-19 3c-11 2-34 3-53 2-34-2-34-2-44 5-5 3-7 5-7 8l3 5c8 10 26 19 42 21 19 2 88-9 100-16 7-4 14-5 24-6 14-1 16-1 41-15 27-16 29-18 16-26-3-2-7-3-10-2s0-2 6-6c7-4 12-8 12-10s-4-6-10-9zm-3027 4c-9 0-17 5-30 16-16 15-16 23 1 41 13 13 16 15 28 15 7 0 12-1 15-4 5-5 7-16 8-34 1-25-3-32-18-34zm3554 16l-5 7c-5 7-15 12-22 11-9-1-17 10-21 28-5 18-5 19-11 18-3 0-7 3-11 6-5 6-6 8-6 27-1 27 2 31 28 37 10 2 19 3 20 2l13-5c13-4 27-17 29-27 0-4 2-5 3-5 5 3 16 3 21 1s15-11 15-15c1-2-1-7-4-11l-4-9 7-9 7-9-4-16c-6-26-16-34-30-24-5 3-7 3-15-2zm-1181 2h-2c-8 3-14 11-16 21-2 14 3 18 16 15 11-2 21-10 21-16 0-2-3-8-8-12-6-6-8-8-11-8zm-1110 14l-3 2c-5 5-10 21-8 26 2 7 10 14 20 17l11 5 8 2c7 0 16-9 14-13-2-5-22-24-33-33-5-4-7-6-9-6zm-1491 1c-10-1-16 3-28 15-6 6-16 11-24 13l-17 4c-8 1-5 16 5 31l11 15 49 4c46 3 51 2 65-4l15-7-2 20c-3 24 1 31 17 33 6 0 9 1 11-2 3-3 5-9 7-23 3-16 3-19-2-28-6-10-13-12-23-7-5 2-6 1-5-7 1-15-4-18-30-20-25-2-28-4-27-19 1-10-7-17-18-18zm1830 0h4c10 0 10 1 22 14 7 7 12 14 12 15-1 2-13 3-20 2-3 0-4-2-5-9-2-10-8-18-16-19s-5-3 3-3zm905 5l5 1c4 1 11 5 17 10 5 4 9 8 8 9s-17-5-23-9l-7-7zm-645 2h1c16 13 32 28 46 43l-5-1c-3-1-10-3-17-3-13-1-17-4-20-15l-6-15c-3-6-3-9 1-9zm548 3c-5 0-8 1-13 6l-7 7 6 16 9 19c3 3 18 3 26 1 6-2 14-9 15-15 0-4-2-7-14-19-13-14-15-15-22-15zm-696 3c-2-1-3 0-5 1-7 8 2 28 15 30 6 1 13-5 13-12 1-9-14-19-23-19zm3285 19l-10 1c-5 0-11 2-13 3-4 4-3 13 2 13 2 1 8-3 12-8zm-1866 12c-9 2-15 15-12 27 2 9 15 22 21 21 6-2 18-15 17-19 0-2-5-9-11-17-9-10-12-13-15-12zm2072 10c-2-1-5 2-9 5l-7 9c1 1 5-1 10-5l1-2c4-3 6-6 5-7zm-3623 7c-5 0-15 8-18 14-2 5-1 6 6 14 7 6 8 10 9 16 1 9 6 16 11 16 3 0 4 1 6 5l8 12c5 5 6 5 16 2 11-3 12-3 25 4 8 4 17 7 20 7 7 0 12-5 13-12 0-4-2-7-13-18-16-16-24-21-38-21-9-1-10-1-13-7-3-9-27-33-32-32zm281 9c2 0 7 2 11 5 6 4 7 6 7 12l-2 8c-3 3-13 5-12 2 0-1-1-8-4-15-3-10-3-12 0-12zm318 0l3 1c3 0 6 2 7 4 2 2 1 3-4 2l-8-3c-3-2-1-4 2-4zm197 6c-13 0-19 4-18 11s5 10 21 16l14 5 6-8 7-7-7-8c-7-8-8-9-21-9zm254 15h-1c-5 2-11 9-10 13 0 7 11 19 21 23 8 4 10 4 14 0s4-6 1-12c-4-9-19-24-25-24zm1707 2c-5 0-12 4-19 11-10 8-8 9 6 4 9-3 15-6 17-8s2-4 0-6zm-1004 7c-3 0-6 2-10 5-9 10-9 15 5 28 11 11 12 12 17 11 4-1 8-3 11-6 2-2 5-7 5-10 1-5 0-7-10-17-8-8-13-11-17-11zm973 16l-7 6c-5 4-18 13-29 19-17 11-21 12-37 10-15-1-23 1-43 9-22 9-25 11-21 15 3 5 5 5 11-1 11-10 24-12 58-9l29 3 5-15c5-16 10-18 24-8 6 5 11 5 13 3s2-6 0-11c-1-5-3-12-2-16zm-2950 5c-8 0-12 6-12 19 0 10-1 14-7 21-9 9-10 16-6 27 3 5 3 8 0 13-6 8-7 33-2 42 5 12 20 19 39 21 13 1 26-4 39-16l12-13c34-36-35-115-63-114zm3987 1c-3 0-20 15-21 18l6-2 8-6c5-5 9-9 7-10zm70 4l-20 27-21 31c0 2 6 7 14 12 16 10 22 10 42-2l11-8c9-9 5-18-10-39zm-2384 1c-6 0-9 7-9 21 0 15 2 20 11 20 7 1 20-12 20-20 0-7-9-16-18-20zm-1133 1l13 2c5 1 6 2 8 8l2 11c-1 6 5 11 15 11 10 1 10 3-5 20l-11 13 6 6c6 7 7 8 4 25l-3 19h-8c-4 0-12 1-17 3l-9 2 3-6c3-5 3-7-1-10-4-5-6-5-15-1-10 4-11 4-16 0-3-3-4-7-4-12 0-6 0-6 7-8 8-3 30-24 31-31 1-11-16-16-25-7-4 3-4 3-8-2-3-3-5-9-5-12 0-4-1-8-4-11s-3-4 0-3c8 2 20-2 28-10 5-5 8-7 14-7zm1062 2c-7 0-15 7-14 14 0 3-1 9-3 12-3 5-3 9 0 13 2 5 2 6 0 3-7-6-12-4-29 13-15 17-15 17-12 21 4 5 16 9 22 7l16-6c11-4 20-2 27 5 8 8 12 9 26 4l19-9 5-5-18-18c-19-19-22-24-24-37 0-9-6-16-14-17zm1542 2l-3 3c-6 4-7 6-5 7l2-2 6-8zm-696 14c-11 0-18 7-16 15 1 8 8 15 14 14s15-10 16-17c1-8-4-12-14-12zm594 5c-4 0-5 5-6 15-1 11 0 13 6 16 6 2 24-3 30-9l1-1c1-1-2-3-6-3-4-1-11-5-15-10zm-3456 5c-5 0-10 1-14 4s-6 9-7 22c-1 22 2 25 33 28 15 1 22 1 25-2 2-3 3-7 3-14 1-7-7-19-21-31-5-5-12-7-19-7zm4035 3l-13 6c-22 10-35 24-30 31 2 2 11-4 21-14l11-11zm-2881 17l2 1c1 1 2 3 1 4 0 3-7 3-7 0s2-5 4-5zm-2171 1c-5 0-10 2-15 7-16 15-11 33 10 35 8 1 15-2 19-6 7-7 7-17 0-28-4-6-9-8-14-8zm4764 4l-1 15c-1 8-3 17-5 20-5 7-4 10 2 7l8-5c5-5 5-11 1-22zm-1606 10c-12 0-22 6-25 15-1 4 0 6 13 19l14 14 12-12c15-15 16-20 6-29-5-6-8-7-18-7zm-835 13l10 2c10 3 11 5 3 3-11-2-17-4-14-5zm-274 0c4 0 10 2 16 5l5 4h-11c-5 0-13 2-17 4-8 5-11 3-8-4 2-6 7-9 15-9zm2626 5l-2 2c-4 6-5 13-1 13h1l3-8zm-1819 5c-6 0-19 12-19 18 0 2 3 7 7 11 7 6 10 8 20 8 11 1 16-1 20-9 2-5-21-27-28-28zm146 5c-5 0-14 9-14 15-1 7 5 12 12 11 3 0 7-2 9-4 7-7 2-22-7-22zm-1409 2c-7-1-13 1-16 5-4 3-4 5 0 10 2 4 12 14 21 22 13 11 18 14 21 14 6-1 17-12 17-17s-26-30-34-33zm1460 7c-2 0-6 3-10 7-7 6-8 7-7 12 1 8 9 16 18 17 5 1 11 5 17 10l12 9 8-5c5-5 6-7 5-16-2-17-12-24-42-34zm714 2h-2c-6 1-15 8-16 14 0 2 3 7 11 16l14 14c3 1 6-1 13-9l8-10-12-13c-9-10-12-12-16-12zm-1964 35c-7 0-13 5-14 13 0 6 5 11 11 11 11 1 18-14 11-21zm270 1c6 0 17 11 20 22l1 9c-2 1-24-23-24-26s1-5 3-5zm-536 3c-6 0-13 2-17 5-13 13-6 33 13 35 10 1 16 0 20-4 3-3 4-7 5-14 2-16-10-21-21-22zm998 5c-8 0-8 8-8 33-1 28 0 30 5 36 6 5 9 6 38 6 30 0 32 1 38 7 4 3 9 7 12 7 4 1 5 2 6 6 0 3 4 9 10 15 8 8 10 11 11 18 3 16 11 25 21 21 8-3 15-11 26-32 10-18 10-20 6-24-2-2-8-3-20-2l-17 1-2-9c-1-8-3-11-13-22-16-15-25-18-38-13-7 2-9 2-11-1l-17-20c-9-10-20-18-32-22zm400 6c-6 0-10 5-9 10 1 7 10 15 15 15 6-1 11-6 11-11s-10-14-16-14zm1508 1c-7 0-17 6-24 15-7 8-7 9-3 14 6 8 13 7 21-1 3-3 7-8 10-14 5-10 5-11 0-13zm-1344 6l-6 4c-4 4-5 8-5 37 0 36 2 41 16 55 4 5 10 9 13 10 5 3 6 2 15-7l10-9-5-7c-4-5-5-10-4-22 1-22-2-28-19-46zm1150 0l-5 3c-6 8-6 10 0 5l1-1c2-2 4-4 4-6zm-2109 9c6 0 13 2 19 6 9 7 10 9 1 5s-19-4-27 2c-8 5-12 3-10-3 1-7 8-10 17-10zm1920 3c-2 0-5 3-12 9-12 14-13 16-5 21 6 4 12 4 16 0 3-2 5-6 6-11 2-7 2-12-1-16zm-2237 5c-5 0-7 2-10 5-5 6-5 7 0 13 4 4 6 11 7 16 1 13 12 22 21 18l10-8c10-13 6-36-7-41l-21-3zm-77 8c-5 0-9 2-14 6l-6 6 11 13c13 15 21 20 35 19 6 0 11-2 14-5 4-4 4-4-6-16-13-16-24-23-34-23zm2995 2l-5 3-17 9c-11 5-13 10-8 23 1 4 4 10 7 13 2 3 3 4 4 3l8-15 11-28c1-6 2-8 0-8zm712 8l-2 1c-6 2-7 14-2 15 2 0 5-1 7-3l1-1c5-6 2-12-4-12zm-4451 3c-12 0-24 1-27 4-4 2-5 8-4 21l2 20 22 4c18 2 28 0 35-6 4-4 6-8 9-13 9-19 7-23-9-27-7-2-18-3-28-3zm3157 0l-1 1c-4 2-5 10-2 12l14 5 11 4-5-8c-6-9-12-14-17-14zm-474 2c-3 0-6 1-9 4s-5 8-5 10c0 5 6 10 12 11 10 0 18-13 12-20-4-3-7-5-10-5zm-1883 16c-7-1-13 6-12 13 1 9 16 22 24 23 8 0 14-5 12-13-1-7-17-23-24-23zm492 3l11 3c6 2 12 5 13 7 4 4 2 9-2 7l-12-9zm1353 3l-8 4c-6 7-7 20 0 30l5 14v6l-8-4c-9-5-23-5-29 1-3 3-4 7-3 16 1 10 2 12 10 20 10 10 18 14 30 12 11 0 17-7 20-19 3-10 3-10 9-11 5 0 9-3 23-16 18-19 19-21 7-31-6-5-9-6-22-5-15 0-15 0-21-7-5-7-9-10-13-10zm-1140 2c-7 0-17 11-18 18 0 10 18 21 32 18 3-1 8-3 11-6 14-11 15-12 11-16s-29-14-36-14zm-1884 38c-8 1-16 2-22 5-10 5-12 7-12 14 0 11 13 18 35 21 10 1 15 0 19-4 2-2 3-7 4-14l-2-16c-3-4-12-6-22-6zm2326 7c-6 1-11 5-21 13-18 16-23 26-22 41 1 13 7 20 20 21l12 2 6 4c5 2 6 2 19-12 12-12 15-15 16-22 3-15 1-22-12-35-8-8-13-12-18-12zm2258 3l2 9c2 4 5 7 6 6v-1c2-4-3-13-8-14zm-3407 5c-3 0-7 2-11 6l-7 8 4 14c3 12 5 17 11 23 4 4 9 7 11 7 6 0 17-12 18-20 1-12-2-19-11-29-7-6-11-9-15-9zm365 16c-5 0-8 1-15 8-12 12-13 21-4 30 5 4 8 6 11 5 6-1 27-23 27-27 0-6-12-16-19-16zm872 7c-3 0-7 2-12 7s-6 7-4 13c2 8 10 17 17 17 5 0 20-14 20-19 0-2-4-7-8-11-5-5-9-7-13-7zm-725 0c-7 0-13 6-14 15 0 9 4 12 14 13 15 0 21-13 11-23-3-4-7-5-11-5zm2110 4c-6 0-17 4-24 9l-8 6 8 3 13 6c2 1 3 0 5-1l6-8c3-7 5-13 4-14zm296 11h-5c-9 2-30 23-26 27 1 2 10 4 20 5 12 1 18 2 21-1 3-2 3-6 4-12 1-12-5-19-14-19zm-2173 7c-5 0-17 12-18 19s6 43 10 46c3 3 18 4 27 2 9-3 15-14 15-28 0-7-2-10-15-23-10-11-15-16-18-16zm-703 11l-3 2c-4 4-7 22-5 29s11 15 18 18h14l12-6 5-4-20-20c-14-14-19-19-21-19zm3580 5l-7 10c-4 7-9 11-14 13-8 2-23 12-24 15h10c10-1 19-5 25-11 7-6 11-14 12-22 0-3-1-5-2-5zm-2363 6c-10 0-12 0-18 6-7 8-7 12 0 21l5 7 9-6 10-6 12 12c7 8 14 12 16 12s6-2 10-6c9-9 9-16-3-28-11-10-18-12-41-12zm-95 13l-6 5c-9 8-10 13-1 22 6 5 8 7 13 6 8-1 14-8 12-14 0-2-5-8-9-12zm-537 2c-50 0-47 98 13 63 3-3 12-4 22-3 11 1 19-1 23-6 3-3 4-7 5-12 0-8-2-11-18-23-18-14-33-19-45-19zm344 6l-6 5c-5 6-5 7 0 22 7 22 11 26 34 31 43 9 53 11 65 7 7-3 13-6 16-10 5-5 5-5-2-14l-8-8h-47l-10-9c-8-8-13-11-25-16l-17-8zm397 3c-3 0-5 1-8 3-7 7-5 13 7 25 6 7 12 11 14 11s6-3 10-7l6-7-11-13c-8-8-13-12-18-12zm-41 5c-3 0-6 2-11 6-6 7-9 23-5 28 3 2 6 2 12 0 17-8 23-20 13-29-3-3-6-5-8-5zm2332 15c-4 0-22 15-32 28-7 9-8 14-7 19 2 3 3 10 2 16 0 8-2 10-10 11-5 1-10 4-11 7l-15 20-12 16 24-11c26-14 31-20 33-41 1-17 5-21 23-19 10 1 15 1 18-2 4-3 2-10-3-24-4-11-8-20-10-20zm-2769 0c-2 0-6 3-18 15l-8 8c-12-7-29-14-45-16-52-7-59-7-64-2-7 5-9 20-4 26 2 3 9 5 15 6 7 0 19 5 27 11 13 8 19 10 46 12l20-1 8 8c15 18 19 19 33 13s20-5 35 10l11 11 18-5c18-6 26-11 28-19 0-4-2-7-14-19-8-9-16-15-19-16s-18-2-33-1h-27l1-16c1-16-1-21-9-25zm-707 9c-5 0-10 7-15 22l-5 15 12 12c10 11 11 11 23 11l22 4c6 2 16 4 22 4 8 1 15 3 19 6 6 4 7 4 11 1 5-5 5-23 1-32-5-12-13-17-28-19-24-3-40-8-47-15-6-6-11-9-15-9zm3270 86c-2 0-2 1-1 2l12 1 2-1-7-1zm250 3c-6 0-13 1-17 3-3 2-3 11 2 13 3 2 14-3 20-9 2-1 3-3 3-5zm-3126 6c-19 0-34 6-41 18-5 10-9 47-5 57 3 7 17 10 30 5 5-1 21-14 36-29 21-20 29-30 29-36 1-7 0-8-18-12zm-1271 17c-8 0-15 4-25 13-16 14-20 24-15 36 3 6 25 4 32-4 5-5 6-5 16 2 5 4 18 9 29 11 15 3 18 3 24-2l2-2c12-12 9-21-8-30l-29-15c-11-6-19-10-26-9zm-74 7c-4 0-8 2-13 5-19 15-10 36 14 37 7 0 11 0 13-2 2-1 2-4 3-11 2-9 1-14-4-21-4-6-8-9-13-8zm3027 25c-7 0-13 4-22 13-10 10-12 14-13 29-1 21 4 26 27 26 15 0 15 0 16 9 1 12 17 28 32 31 9 3 12 2 22-7l4-3c19-17 23-33 12-47-6-8-9-9-25-10l-24 2c-4 2-5 1-4-9 1-20-2-29-14-32zm-1195 8c-2 0-7 3-11 7-6 7-8 9-7 14 0 28 54 18 44 1-7-9-16-16-26-22zm-1973 6c-5 0-13 5-23 14-17 19-24 22-39 21-16-2-23 2-31 15-4 5-7 14-7 20 0 8 2 10 10 11 6 2 14 6 19 11 7 8 12 9 30 11l20 2 14-27c14-27 18-42 15-66-1-8-4-12-8-12zm-381 3c-5 0-10 3-17 9-10 9-12 12-12 26l-2 15 26 2c18 2 28 1 32-4 5-5 2-15-8-31-8-11-13-17-19-17zm4698 11c-3-1-10 5-10 8 0 2 2 4 4 4l4-2c3-3 5-7 3-10zm-4504 6c-3 0-8 2-11 5-12 10-6 37 8 38 3 0 6-2 9-5 4-4 9-12 9-19 1-8-7-18-14-19zm1688 21c-9 0-12 1-16 5-8 8-11 27-5 37 11 12 43 12 53 3l2-2c10-9 16-21 17-31v-8l-30-3zm1975 9c-7 0-11 3-21 14l-20 22c-4 5-6 13-6 24l-1 17 29 3c25 3 30 3 39-2l12-8c6-7 9-14 10-26s-1-16-11-28-13-15-25-16zm-3123 8c-4 0-9 4-14 12-12 21-8 34 10 35 4 1 7 0 10-3s5-8 5-16c2-18-4-28-11-28zm-622 9c-14 0-21 2-32 6-22 9-36 21-41 34 307 343 301 312 147-4-15-32-17-33-56-35z" fill="#f2f1ed"/></svg>
