<?xml version="1.0" encoding="utf-8"?>
<svg version="1.1" xmlns="http://www.w3.org/2000/svg" x="0" y="0" viewBox="0 0 1499 549" xml:space="preserve">
	<path
		d="M926.2,397.2c-1.9,7.9-6,14.9-13,19.3c-11,6.9-24.4,4.9-33.9-3.5c-8.9-7.8-11.9-21-9.1-32.4c2.9-11.9,12.1-22.4,23.9-25.7C920.4,347.6,931.3,376.2,926.2,397.2z"
		fill="#6CC7D2"
	/>
	<path
		d="M910.1,316c-16.3-6.5-10.7-92,4.2-195.8c4.2-29,11.4-42.7,19.5-49.7c11.6-9.9,32.7-10.3,47-8.2c16.4,2.4,32.1,10,44,21.5c10.5,10.2,11.7,20.6,8.1,34.1c-5.9,21.5-16,42.1-25.7,62.2c-2.3,4.9-22.4,43-25.1,47.7C933.6,313.2,923.9,321.5,910.1,316z"
		fill="#6CC7D2"
	/>
	<path
		d="M581.1,277.5c9.6,41,8.6,86,0.4,118.4c-7.7,30.6-28.6,58-61.8,67.2c-29.1,8.1-63,2.2-83.8-17.8c-34.2-32.8-54.2-109.8-45.3-165.7c7.2-44.9,31.4-102.4,84.5-104.9c3.4-0.2,6.8-0.1,10.2,0.2C539.4,179.8,568.9,225.4,581.1,277.5z M483.3,370.8c3,0.5,6,0.5,9-0.4c10.1-2.9,15.9-13.4,18.6-23.6c4.1-15.5,3.5-32.2-1.8-47.4c-2.7-7.7-6.7-15.2-12.8-20.8c-21.5-19.7-43,0.8-46.7,24.1c-2.9,18.2,1.3,39.3,12.7,54C467.6,363.5,475.2,369.4,483.3,370.8z"
		fill="#BBB5B3"
	/>
	<path
		d="M698.2,364.4c-0.1,75.7,7.5,133.6-25.8,140.5c-27,5.5-26.1-18.2-28.2-38.1c-8-77.1-15.3-205.2-18.4-282.7c2.2-33.3,24.5-53.7,47.7-58.7c35.8-7.7,74-5.5,105.7,14.1c62.7,38.8,67.7,110,29.7,168.1c-20.8,31.7-83.7,54.7-110.7,52.7V364.4z M706.2,194.7c-3.9,0.6-10.3,2.4-12.1,6.2c-4.3,8.9-4,65.4,3.5,89.1c1.2,3.9,3.9,7.6,7.8,9c14.2,5.2,27-12.2,32.8-22.7c8.1-14.6,10.7-31.8,5.6-47.8C739,213.6,724.1,192,706.2,194.7z"
		fill="#99918D"
	/>
	<path
		d="M339.6,232.3C316.1,282,277.1,321.5,223.1,341c15.5,40.5,31.3,80.5,46.7,120.9c8.6,21.8,16.8,45.7,9.3,67.2c-7.8,22-38.2,28.1-60.3,4.7C176.3,488.6,32.6,202.2,22,180.7C13,162.2-0.5,142.4-0.1,121c0.7-32.2,50.5-64.8,74.4-81.5c33.4-23.3,72-39.2,113.3-39.3c32.2,0,59.7,8.8,84.1,24.4c37.4,24,63.4,62.3,73,105.6C353.1,168.3,351.3,207.3,339.6,232.3M230.1,177.9c-8.4-30.5-27.4-58.6-51.3-78.3c-5.2-4.3-10.8-8.3-17.3-10.5c-44.8-14.7-25.4,60.2-18.1,79.1c10.1,26.5,25.4,60,45.9,80c4.5,4.4,9.8,8.3,15.9,9.5c9.3,1.9,17.9-4.6,22.6-12.2c3.9-6.3,5.4-13.8,6.3-21.1C235.8,208.9,234.3,193.1,230.1,177.9z"
		fill="#48B9C7"
	/>
	<path
		d="M1337.8,460.8c-0.2,43.9-27,87.8-86.1,87.8c-59.1,0-86.6-43.2-86.6-87.3c0-55,38.3-89,87.8-89C1310.3,372.8,1338.3,415.4,1337.8,460.8z M1252.9,400c-37.1,0-57.9,25.8-58.1,61c0,30.6,17.1,59.3,57.4,59.3c40.3,0,55.7-31.1,55.7-59.6C1308.4,431.1,1292.7,400.7,1252.9,400z"
		fill="currentcolor"
	/>
	<path
		d="M1362.6,526.1c0,6.5,0.2-30.9,0-36.6h27.2l1.9,22.9c8.9,5.1,22.7,8.9,34,8.9c21,0,42.9-5.3,42.9-25.8c-0.7-18.6-25.1-22.4-44.8-24.4c-33.5-3.4-60.5-11.6-60.5-49.2c0-33.5,37.9-50.2,66.1-50.2c22.7-0.5,38.8,3.1,59.3,19.5c0,13.5-0.2,21.5-0.2,35h-26.3l-1.7-22.2c-10.6-5.1-21.5-6.5-29.9-6.3c-18.1,0.2-37.4,8.7-37.4,23.9c0,14.9,12.5,19,34.7,22.2c36.2,4.8,71.1,13,71.1,51.6c-0.2,42.2-39.8,53.3-73.8,53.3C1399.3,548.8,1383.1,544,1362.6,526.1z"
		fill="currentcolor"
	/>
	<path
		d="M1128.4,534.2c0,7.7-6.2,13.9-13.9,13.9l-160.7,0c-7.7,0-13.9-6.2-13.9-13.9l0-1.2c0-7.7,6.2-13.9,13.9-13.9l160.7,0c7.7,0,13.9,6.2,13.9,13.9L1128.4,534.2z"
		fill="#FAA41A"
	/>
</svg>
