<svg version="1" xmlns="http://www.w3.org/2000/svg" width="682.667" height="682.667" viewBox="0 0 512.000000 512.000000"><path d="M243.3.7c.9.2 2.3.2 3 0 .6-.3-.1-.5-1.8-.5-1.6 0-2.2.2-1.2.5zM266.3.7c.9.2 2.3.2 3 0 .6-.3-.1-.5-1.8-.5-1.6 0-2.2.2-1.2.5zM227.8 1.7c.6.2 1.8.2 2.5 0 .6-.3.1-.5-1.3-.5-1.4 0-1.9.2-1.2.5zM281.8 1.7c.6.2 1.8.2 2.5 0 .6-.3.1-.5-1.3-.5-1.4 0-1.9.2-1.2.5zM290.8 2.7c.7.3 1.6.2 1.9-.1.4-.3-.2-.6-1.3-.5-1.1 0-1.4.3-.6.6zM207.8 4.7c.7.3 1.6.2 1.9-.1.4-.3-.2-.6-1.3-.5-1.1 0-1.4.3-.6.6zM302.8 4.7c.7.3 1.6.2 1.9-.1.4-.3-.2-.6-1.3-.5-1.1 0-1.4.3-.6.6zM202.8 5.7c.7.3 1.6.2 1.9-.1.4-.3-.2-.6-1.3-.5-1.1 0-1.4.3-.6.6zM307.8 5.7c.7.3 1.6.2 1.9-.1.4-.3-.2-.6-1.3-.5-1.1 0-1.4.3-.6.6zM94.9 56.7c-1.3 1.6-1.2 1.7.4.4.9-.7 1.7-1.5 1.7-1.7 0-.8-.8-.3-2.1 1.3zM87.4 63.2l-1.9 2.3 2.3-1.9c2.1-1.8 2.7-2.6 1.9-2.6-.2 0-1.2 1-2.3 2.2zM423.5 63c1 1.1 2 2 2.3 2 .3 0-.3-.9-1.3-2s-2-2-2.3-2c-.3 0 .3.9 1.3 2zM198.9 62.4c-.2.2-3.4.7-7.2 1-3.7.3-10 1.8-14 3.2-3.9 1.4-8.3 2.9-9.7 3.4-3.2.9-17.3 8.4-21 11-1.6 1.1-3.3 2-3.9 2-.6 0-1.1.4-1.1.8s-1.5 1.6-3.2 2.7c-6.3 3.6-18.9 13.8-25.1 20.1-10.8 11-12.5 13.9-13.3 22.1-.9 8.2 1.3 15.8 8.3 28.9 3.3 6 6.5 12.5 7.3 14.4.7 1.9 1.8 4.1 2.4 4.8.5.8 5.5 10.4 11.1 21.5S143 225 147.2 233c4.2 8 9.6 18.3 12 23 9 17.3 16.1 30.5 17 31.6.5.7 2.2 3.8 3.9 7 1.6 3.3 3.5 6.8 4.2 7.9 5.4 8.8 8.7 14.7 8.7 15.4 0 .5 1 2.1 2.2 3.6 1.1 1.5 3.3 4.9 4.7 7.6 8.2 15.4 21.1 33 27.4 37.3 11.3 7.7 24.3 4.5 28.7-7.1 1.1-2.9 2-7.7 2-10.5 0-4.8-3-18.6-5-23.3-2.4-5.4-4.3-10.4-5.6-14.5-.7-2.5-2.3-6.3-3.4-8.5-1.1-2.1-2-4.5-2-5.2 0-.7-.4-2.1-.9-3.1-1.5-3-5-11.6-5.7-14.2-.3-1.4-1.7-4.8-3-7.7-1.8-4-6.4-16.8-6.4-17.8 0-.2 4.2-2.4 9.3-5 5-2.6 10.8-5.8 12.8-7.1 6.2-3.9 18.2-14.3 22.7-19.7 4.3-5.1 16.2-22.1 16.2-23.1 0-.3 1.3-3.3 3-6.7 3.1-6.5 3.4-7.7 5.1-20.9 1.6-12.3-.4-33.4-4.2-43.7-1.1-3.2-2.3-6.8-2.6-8.1-.3-1.2-.9-2.5-1.4-2.8-.5-.3-.9-1.1-.9-1.8 0-1.4-4.7-9.6-9-15.6-4.2-5.9-9.8-11.9-16.7-17.7-5.5-4.6-6.4-5.3-6.9-5.3-.2 0-2.8-1.6-5.7-3.5-2.8-1.9-5.7-3.5-6.4-3.5-.7 0-3.7-1.1-6.8-2.4-5.7-2.6-7.7-3.1-18.5-4.6-6.7-1-16.3-1.3-17.1-.6zm-6.4 51.6c13.2 6.4 29.8 28.6 35.1 47 4.1 14.5 4.3 28.6.3 36.5-3.7 7.5-6.2 8.9-14.1 8.6-3.8-.1-13.8-10.4-18.9-19.3-2.3-4.2-10.9-21.7-11.9-24.3-.4-1.1-1.7-4.5-2.9-7.6-4.1-10.5-5.9-27.5-3.9-35.4 2-7.5 7.9-9.6 16.3-5.5zM74 75.7l-6.5 6.8 6.8-6.5c6.2-6 7.2-7 6.4-7-.1 0-3.2 3-6.7 6.7zM437 75.5c3 3 5.7 5.5 5.9 5.5.3 0-1.9-2.5-4.9-5.5-3-3-5.7-5.5-5.9-5.5-.3 0 1.9 2.5 4.9 5.5zM62.4 88.2l-1.9 2.3 2.3-1.9c2.1-1.8 2.7-2.6 1.9-2.6-.2 0-1.2 1-2.3 2.2zM448.5 88c1 1.1 2 2 2.3 2 .3 0-.3-.9-1.3-2s-2-2-2.3-2c-.3 0 .3.9 1.3 2zM353.5 155c-12.9 2.8-19.4 12.3-23.1 33.5-.2 1.1-1 7.7-1.8 14.7-.8 7.1-2 16.5-2.7 21-2.7 19.4-3.4 31.2-3.4 54.8 0 22 .5 25.8 4.3 30.2 4 4.7 12.4.1 19.8-10.7 1.1-1.7 3.7-5.4 5.7-8.2 2-2.9 3.7-5.5 3.7-5.8 0-.3 1.6-3.1 3.5-6.1 1.9-3 3.5-5.7 3.5-6 0-.3 1.5-2.9 3.4-5.9 1.9-2.9 4.4-7.1 5.4-9.2 1.1-2.1 3.8-7.2 5.9-11.3 6.1-11.4 11.7-22.7 15.2-30.5 1.8-3.9 3.6-7.8 4.2-8.7.5-1 .9-2.2.9-2.7s.8-2.6 1.7-4.7c.9-2.2 1.7-4.1 1.8-4.4.1-.3.7-2.5 1.4-4.9 1.6-5.7 1.1-12.8-1.2-16.9-4.3-7.3-17.8-16-27.5-17.7-5.5-1-17.2-1.3-20.7-.5zM5.1 203.6c0 1.1.3 1.4.6.6.3-.7.2-1.6-.1-1.9-.3-.4-.6.2-.5 1.3zM506.1 203.6c0 1.1.3 1.4.6.6.3-.7.2-1.6-.1-1.9-.3-.4-.6.2-.5 1.3zM4.1 208.6c0 1.1.3 1.4.6.6.3-.7.2-1.6-.1-1.9-.3-.4-.6.2-.5 1.3zM507.1 208.6c0 1.1.3 1.4.6.6.3-.7.2-1.6-.1-1.9-.3-.4-.6.2-.5 1.3zM1.2 229c0 1.4.2 1.9.5 1.2.2-.6.2-1.8 0-2.5-.3-.6-.5-.1-.5 1.3zM510.2 229c0 1.4.2 1.9.5 1.2.2-.6.2-1.8 0-2.5-.3-.6-.5-.1-.5 1.3zM511.2 245c0 1.9.2 2.7.5 1.7.2-.9.2-2.5 0-3.5-.3-.9-.5-.1-.5 1.8zM.2 245c0 1.4.2 1.9.5 1.2.2-.6.2-1.8 0-2.5-.3-.6-.5-.1-.5 1.3zM.2 267.5c0 1.6.2 2.2.5 1.2.2-.9.2-2.3 0-3-.3-.6-.5.1-.5 1.8zM511.2 268c0 1.9.2 2.7.5 1.7.2-.9.2-2.5 0-3.5-.3-.9-.5-.1-.5 1.8zM1.2 283c0 1.4.2 1.9.5 1.2.2-.6.2-1.8 0-2.5-.3-.6-.5-.1-.5 1.3zM510.1 282.6c0 1.1.3 1.4.6.6.3-.7.2-1.6-.1-1.9-.3-.4-.6.2-.5 1.3zM2.1 291.6c0 1.1.3 1.4.6.6.3-.7.2-1.6-.1-1.9-.3-.4-.6.2-.5 1.3zM4.1 303.6c0 1.1.3 1.4.6.6.3-.7.2-1.6-.1-1.9-.3-.4-.6.2-.5 1.3zM507.1 303.6c0 1.1.3 1.4.6.6.3-.7.2-1.6-.1-1.9-.3-.4-.6.2-.5 1.3zM5.1 308.6c0 1.1.3 1.4.6.6.3-.7.2-1.6-.1-1.9-.3-.4-.6.2-.5 1.3zM506.1 308.6c0 1.1.3 1.4.6.6.3-.7.2-1.6-.1-1.9-.3-.4-.6.2-.5 1.3zM316.6 333.6c-4.2 1.5-9.7 7-12.1 12.1-1.9 3.9-1.9 12.3-.1 16.7 1.8 4.3 7.7 9.1 13.2 10.6 6.3 1.8 12.7-.7 17.4-6.8 3.4-4.4 3.5-4.8 3.5-13.7 0-8.6-.1-9.3-3.2-13.5-5-6.7-10.6-8.4-18.7-5.4zM137.1 392.8c-6.3.6-13.9 6.8-16 13.1-3.6 10.9.8 21.9 10.9 27.1 3.8 2 6.1 2 124 2s120.2 0 124-2c8-4.1 12-10.6 12-19.6 0-8.2-3-13.4-10.5-18.2l-4-2.6H259c-65.2-.1-120 0-121.9.2zM454.9 416.7c-1.3 1.6-1.2 1.7.4.4 1.6-1.3 2.1-2.1 1.3-2.1-.2 0-1 .8-1.7 1.7zM62 423.5c1.3 1.4 2.6 2.5 2.8 2.5.3 0-.5-1.1-1.8-2.5s-2.6-2.5-2.8-2.5c-.3 0 .5 1.1 1.8 2.5zM448.4 424.2l-1.9 2.3 2.3-1.9c2.1-1.8 2.7-2.6 1.9-2.6-.2 0-1.2 1-2.3 2.2zM436.5 437.2l-7 7.3 7.3-7c6.7-6.4 7.7-7.5 6.9-7.5-.1 0-3.4 3.3-7.2 7.2zM74 436.5c3 3 5.7 5.5 5.9 5.5.3 0-1.9-2.5-4.9-5.5-3-3-5.7-5.5-5.9-5.5-.3 0 1.9 2.5 4.9 5.5zM87.5 449c1 1.1 2 2 2.3 2 .3 0-.3-.9-1.3-2s-2-2-2.3-2c-.3 0 .3.9 1.3 2zM423.4 449.2l-1.9 2.3 2.3-1.9c2.1-1.8 2.7-2.6 1.9-2.6-.2 0-1.2 1-2.3 2.2zM158.7 493.1c.7.7 1.5 1 1.8.7.3-.3-.2-.9-1.2-1.2-1.4-.6-1.5-.5-.6.5zM307.8 506.7c.7.3 1.6.2 1.9-.1.4-.3-.2-.6-1.3-.5-1.1 0-1.4.3-.6.6zM207.8 507.7c.7.3 1.6.2 1.9-.1.4-.3-.2-.6-1.3-.5-1.1 0-1.4.3-.6.6zM302.8 507.7c.7.3 1.6.2 1.9-.1.4-.3-.2-.6-1.3-.5-1.1 0-1.4.3-.6.6zM228.8 510.7c.7.3 1.6.2 1.9-.1.4-.3-.2-.6-1.3-.5-1.1 0-1.4.3-.6.6zM281.8 510.7c.6.2 1.8.2 2.5 0 .6-.3.1-.5-1.3-.5-1.4 0-1.9.2-1.2.5zM243.8 511.7c.6.2 1.8.2 2.5 0 .6-.3.1-.5-1.3-.5-1.4 0-1.9.2-1.2.5zM266.3 511.7c.9.2 2.3.2 3 0 .6-.3-.1-.5-1.8-.5-1.6 0-2.2.2-1.2.5z"/></svg>